M48
; DRILL file {KiCad (5.1.10)-1} date 10/24/21 19:56:04
; FORMAT={-:-/ absolute / metric / decimal}
; #@! TF.CreationDate,2021-10-24T19:56:04-03:00
; #@! TF.GenerationSoftware,Kicad,Pcbnew,(5.1.10)-1
; #@! TF.FileFunction,Plated,1,2,PTH
FMAT,2
METRIC
T1C0.400
T2C0.508
T3C0.650
T4C0.670
T5C0.700
T6C0.800
T7C0.890
T8C1.000
T9C2.010
%
G90
G05
T1
X146.162Y-75.237
X148.172Y-72.467
X149.9Y-71.413
X150.425Y-104.541
X151.589Y-71.4
X153.117Y-85.887
X153.219Y-87.461
X153.32Y-89.189
X153.356Y-93.334
X153.727Y-92.278
X153.923Y-71.661
X153.953Y-96.078
X154.43Y-108.315
X156.32Y-93.539
X157.202Y-109.585
X158.063Y-84.556
X159.25Y-107.045
X159.457Y-83.142
X160.464Y-83.127
X163.598Y-86.617
X168.882Y-87.342
X172.325Y-90.8
T2
X142.779Y-87.563
X162.365Y-82.385
X178.675Y-95.825
X178.8Y-87.65
X180.326Y-103.024
X182.561Y-103.97
T4
X139.096Y-82.864
X139.096Y-85.404
X139.096Y-95.056
X139.096Y-97.596
X146.716Y-82.864
X146.716Y-85.404
X146.716Y-95.056
X146.716Y-97.596
T5
X143.56Y-91.0
X146.1Y-91.0
X165.025Y-69.875
X165.025Y-72.415
X174.31Y-87.575
X174.31Y-89.725
X176.85Y-87.575
X176.85Y-89.725
T6
X179.279Y-69.453
X179.279Y-71.993
X179.279Y-74.533
T7
X132.238Y-77.632
X132.238Y-80.172
X132.688Y-103.807
X132.688Y-106.347
T8
X171.684Y-79.46
X174.224Y-79.46
X176.764Y-79.46
X179.304Y-79.46
T9
X127.158Y-72.552
X127.158Y-82.712
X127.608Y-98.727
X127.608Y-108.887
T3
X181.465Y-86.78G85X181.065Y-86.78
G05
X181.465Y-91.62G85X181.065Y-91.62
G05
T5
X184.515Y-86.47G85X184.015Y-86.47
G05
X184.515Y-91.93G85X184.015Y-91.93
G05
T0
M30
