%FSLAX45Y45*%
G04 Gerber Fmt 4.5, Leading zero omitted, Abs format (unit mm)*
G04 Created by KiCad (PCBNEW (5.1.10)-1) date 2021-10-24 19:56:07*
%MOMM*%
%LPD*%
G01*
G04 APERTURE LIST*
%TA.AperFunction,Profile*%
%ADD10C,0.100000*%
%TD*%
%ADD11C,0.200000*%
%ADD12C,0.300000*%
G04 APERTURE END LIST*
D10*
X11952500Y-6560000D02*
X11957500Y-6562500D01*
X11977500Y-11372500D02*
X11952500Y-6560000D01*
X18595000Y-11375000D02*
X11977500Y-11372500D01*
X18592500Y-6565000D02*
X18595000Y-11375000D01*
X11957500Y-6562500D02*
X18592500Y-6565000D01*
D11*
D12*
X12233928Y-11845714D02*
X12233928Y-11545714D01*
X12305357Y-11545714D01*
X12348214Y-11560000D01*
X12376786Y-11588571D01*
X12391071Y-11617143D01*
X12405357Y-11674286D01*
X12405357Y-11717143D01*
X12391071Y-11774286D01*
X12376786Y-11802857D01*
X12348214Y-11831429D01*
X12305357Y-11845714D01*
X12233928Y-11845714D01*
X12533928Y-11845714D02*
X12533928Y-11645714D01*
X12533928Y-11702857D02*
X12548214Y-11674286D01*
X12562500Y-11660000D01*
X12591071Y-11645714D01*
X12619643Y-11645714D01*
X12719643Y-11845714D02*
X12719643Y-11645714D01*
X12719643Y-11545714D02*
X12705357Y-11560000D01*
X12719643Y-11574286D01*
X12733928Y-11560000D01*
X12719643Y-11545714D01*
X12719643Y-11574286D01*
X12905357Y-11845714D02*
X12876786Y-11831429D01*
X12862500Y-11802857D01*
X12862500Y-11545714D01*
X13062500Y-11845714D02*
X13033928Y-11831429D01*
X13019643Y-11802857D01*
X13019643Y-11545714D01*
X13405357Y-11845714D02*
X13405357Y-11545714D01*
X13505357Y-11760000D01*
X13605357Y-11545714D01*
X13605357Y-11845714D01*
X13876786Y-11845714D02*
X13876786Y-11688571D01*
X13862500Y-11660000D01*
X13833928Y-11645714D01*
X13776786Y-11645714D01*
X13748214Y-11660000D01*
X13876786Y-11831429D02*
X13848214Y-11845714D01*
X13776786Y-11845714D01*
X13748214Y-11831429D01*
X13733928Y-11802857D01*
X13733928Y-11774286D01*
X13748214Y-11745714D01*
X13776786Y-11731429D01*
X13848214Y-11731429D01*
X13876786Y-11717143D01*
X14019643Y-11645714D02*
X14019643Y-11945714D01*
X14019643Y-11660000D02*
X14048214Y-11645714D01*
X14105357Y-11645714D01*
X14133928Y-11660000D01*
X14148214Y-11674286D01*
X14162500Y-11702857D01*
X14162500Y-11788571D01*
X14148214Y-11817143D01*
X14133928Y-11831429D01*
X14105357Y-11845714D01*
X14048214Y-11845714D01*
X14019643Y-11831429D01*
X14291071Y-11817143D02*
X14305357Y-11831429D01*
X14291071Y-11845714D01*
X14276786Y-11831429D01*
X14291071Y-11817143D01*
X14291071Y-11845714D01*
X14291071Y-11660000D02*
X14305357Y-11674286D01*
X14291071Y-11688571D01*
X14276786Y-11674286D01*
X14291071Y-11660000D01*
X14291071Y-11688571D01*
M02*
