%FSLAX45Y45*%
G04 Gerber Fmt 4.5, Leading zero omitted, Abs format (unit mm)*
G04 Created by KiCad (PCBNEW (5.1.10)-1) date 2021-10-24 19:56:07*
%MOMM*%
%LPD*%
G01*
G04 APERTURE LIST*
%TA.AperFunction,Profile*%
%ADD10C,0.100000*%
%TD*%
%ADD11C,0.200000*%
%ADD12C,0.300000*%
G04 APERTURE END LIST*
D10*
X11952500Y-6560000D02*
X11957500Y-6562500D01*
X11977500Y-11372500D02*
X11952500Y-6560000D01*
X18595000Y-11375000D02*
X11977500Y-11372500D01*
X18592500Y-6565000D02*
X18595000Y-11375000D01*
X11957500Y-6562500D02*
X18592500Y-6565000D01*
D11*
X14596180Y-7503710D02*
X14636180Y-7543710D01*
X14636180Y-7503710D02*
X14596180Y-7543710D01*
X14797190Y-7226720D02*
X14837190Y-7266720D01*
X14837190Y-7226720D02*
X14797190Y-7266720D01*
X14970010Y-7121260D02*
X15010010Y-7161260D01*
X15010010Y-7121260D02*
X14970010Y-7161260D01*
X15022460Y-10434120D02*
X15062460Y-10474120D01*
X15062460Y-10434120D02*
X15022460Y-10474120D01*
X15138890Y-7120050D02*
X15178890Y-7160050D01*
X15178890Y-7120050D02*
X15138890Y-7160050D01*
X15291700Y-8568660D02*
X15331700Y-8608660D01*
X15331700Y-8568660D02*
X15291700Y-8608660D01*
X15301860Y-8726140D02*
X15341860Y-8766140D01*
X15341860Y-8726140D02*
X15301860Y-8766140D01*
X15312020Y-8898860D02*
X15352020Y-8938860D01*
X15352020Y-8898860D02*
X15312020Y-8938860D01*
X15315620Y-9313350D02*
X15355620Y-9353350D01*
X15355620Y-9313350D02*
X15315620Y-9353350D01*
X15352680Y-9207820D02*
X15392680Y-9247820D01*
X15392680Y-9207820D02*
X15352680Y-9247820D01*
X15372350Y-7146090D02*
X15412350Y-7186090D01*
X15412350Y-7146090D02*
X15372350Y-7186090D01*
X15375290Y-9587780D02*
X15415290Y-9627780D01*
X15415290Y-9587780D02*
X15375290Y-9627780D01*
X15423040Y-10811500D02*
X15463040Y-10851500D01*
X15463040Y-10811500D02*
X15423040Y-10851500D01*
X15612000Y-9333930D02*
X15652000Y-9373930D01*
X15652000Y-9333930D02*
X15612000Y-9373930D01*
X15700240Y-10938500D02*
X15740240Y-10978500D01*
X15740240Y-10938500D02*
X15700240Y-10978500D01*
X15786310Y-8435580D02*
X15826310Y-8475580D01*
X15826310Y-8435580D02*
X15786310Y-8475580D01*
X15905040Y-10684500D02*
X15945040Y-10724500D01*
X15945040Y-10684500D02*
X15905040Y-10724500D01*
X15925740Y-8294250D02*
X15965740Y-8334250D01*
X15965740Y-8294250D02*
X15925740Y-8334250D01*
X16026360Y-8292720D02*
X16066360Y-8332720D01*
X16066360Y-8292720D02*
X16026360Y-8332720D01*
X16339770Y-8641650D02*
X16379770Y-8681650D01*
X16379770Y-8641650D02*
X16339770Y-8681650D01*
X16868220Y-8714180D02*
X16908220Y-8754180D01*
X16908220Y-8714180D02*
X16868220Y-8754180D01*
X17212500Y-9060000D02*
X17252500Y-9100000D01*
X17252500Y-9060000D02*
X17212500Y-9100000D01*
X14303320Y-8756300D02*
G75*
G03*
X14303320Y-8756300I-25400J0D01*
G01*
X16261870Y-8238530D02*
G75*
G03*
X16261870Y-8238530I-25400J0D01*
G01*
X17892900Y-9582500D02*
G75*
G03*
X17892900Y-9582500I-25400J0D01*
G01*
X17905400Y-8765000D02*
G75*
G03*
X17905400Y-8765000I-25400J0D01*
G01*
X18057950Y-10302450D02*
G75*
G03*
X18057950Y-10302450I-25400J0D01*
G01*
X18281500Y-10397000D02*
G75*
G03*
X18281500Y-10397000I-25400J0D01*
G01*
X18126500Y-8645500D02*
X18126500Y-8710500D01*
X18094000Y-8678000D02*
X18159000Y-8678000D01*
X18146500Y-8655500D02*
X18106500Y-8655500D01*
X18146500Y-8700500D02*
X18106500Y-8700500D01*
X18106500Y-8655500D02*
G75*
G03*
X18106500Y-8700500I0J-22500D01*
G01*
X18146500Y-8700500D02*
G75*
G03*
X18146500Y-8655500I0J22500D01*
G01*
X18126500Y-9129500D02*
X18126500Y-9194500D01*
X18094000Y-9162000D02*
X18159000Y-9162000D01*
X18146500Y-9139500D02*
X18106500Y-9139500D01*
X18146500Y-9184500D02*
X18106500Y-9184500D01*
X18106500Y-9139500D02*
G75*
G03*
X18106500Y-9184500I0J-22500D01*
G01*
X18146500Y-9184500D02*
G75*
G03*
X18146500Y-9139500I0J22500D01*
G01*
X13933308Y-8310088D02*
X13933308Y-8262712D01*
X13885932Y-8262712D01*
X13885932Y-8310088D01*
X13933308Y-8310088D01*
X13933308Y-8564088D02*
X13933308Y-8516712D01*
X13885932Y-8516712D01*
X13885932Y-8564088D01*
X13933308Y-8564088D01*
X13933308Y-9529288D02*
X13933308Y-9481912D01*
X13885932Y-9481912D01*
X13885932Y-9529288D01*
X13933308Y-9529288D01*
X13933308Y-9783288D02*
X13933308Y-9735912D01*
X13885932Y-9735912D01*
X13885932Y-9783288D01*
X13933308Y-9783288D01*
X14695308Y-8310088D02*
X14695308Y-8262712D01*
X14647932Y-8262712D01*
X14647932Y-8310088D01*
X14695308Y-8310088D01*
X14695308Y-8564088D02*
X14695308Y-8516712D01*
X14647932Y-8516712D01*
X14647932Y-8564088D01*
X14695308Y-8564088D01*
X14695308Y-9529288D02*
X14695308Y-9481912D01*
X14647932Y-9481912D01*
X14647932Y-9529288D01*
X14695308Y-9529288D01*
X14695308Y-9783288D02*
X14695308Y-9735912D01*
X14647932Y-9735912D01*
X14647932Y-9783288D01*
X14695308Y-9783288D01*
X14356000Y-9135000D02*
X14391000Y-9100000D01*
X14356000Y-9065000D01*
X14321000Y-9100000D01*
X14356000Y-9135000D01*
X14610000Y-9135000D02*
X14645000Y-9100000D01*
X14610000Y-9065000D01*
X14575000Y-9100000D01*
X14610000Y-9135000D01*
X16502500Y-7022500D02*
X16537500Y-6987500D01*
X16502500Y-6952500D01*
X16467500Y-6987500D01*
X16502500Y-7022500D01*
X16502500Y-7276500D02*
X16537500Y-7241500D01*
X16502500Y-7206500D01*
X16467500Y-7241500D01*
X16502500Y-7276500D01*
X17431000Y-8792500D02*
X17466000Y-8757500D01*
X17431000Y-8722500D01*
X17396000Y-8757500D01*
X17431000Y-8792500D01*
X17431000Y-9007500D02*
X17466000Y-8972500D01*
X17431000Y-8937500D01*
X17396000Y-8972500D01*
X17431000Y-9007500D01*
X17685000Y-8792500D02*
X17720000Y-8757500D01*
X17685000Y-8722500D01*
X17650000Y-8757500D01*
X17685000Y-8792500D01*
X17685000Y-9007500D02*
X17720000Y-8972500D01*
X17685000Y-8937500D01*
X17650000Y-8972500D01*
X17685000Y-9007500D01*
X18426500Y-8682000D02*
X18461500Y-8647000D01*
X18426500Y-8612000D01*
X18391500Y-8647000D01*
X18426500Y-8682000D01*
X18451500Y-8622000D02*
X18401500Y-8622000D01*
X18451500Y-8672000D02*
X18401500Y-8672000D01*
X18401500Y-8622000D02*
G75*
G03*
X18401500Y-8672000I0J-25000D01*
G01*
X18451500Y-8672000D02*
G75*
G03*
X18451500Y-8622000I0J25000D01*
G01*
X18426500Y-9228000D02*
X18461500Y-9193000D01*
X18426500Y-9158000D01*
X18391500Y-9193000D01*
X18426500Y-9228000D01*
X18451500Y-9168000D02*
X18401500Y-9168000D01*
X18451500Y-9218000D02*
X18401500Y-9218000D01*
X18401500Y-9168000D02*
G75*
G03*
X18401500Y-9218000I0J-25000D01*
G01*
X18451500Y-9218000D02*
G75*
G03*
X18451500Y-9168000I0J25000D01*
G01*
X17887900Y-6905300D02*
X17967900Y-6985300D01*
X17967900Y-6905300D02*
X17887900Y-6985300D01*
X17967900Y-6945300D02*
G75*
G03*
X17967900Y-6945300I-40000J0D01*
G01*
X17887900Y-7159300D02*
X17967900Y-7239300D01*
X17967900Y-7159300D02*
X17887900Y-7239300D01*
X17967900Y-7199300D02*
G75*
G03*
X17967900Y-7199300I-40000J0D01*
G01*
X17887900Y-7413300D02*
X17967900Y-7493300D01*
X17967900Y-7413300D02*
X17887900Y-7493300D01*
X17967900Y-7453300D02*
G75*
G03*
X17967900Y-7453300I-40000J0D01*
G01*
X13179320Y-7718700D02*
X13268320Y-7807700D01*
X13268320Y-7718700D02*
X13179320Y-7807700D01*
X13223820Y-7718700D02*
X13223820Y-7807700D01*
X13179320Y-7763200D02*
X13268320Y-7763200D01*
X13179320Y-7972700D02*
X13268320Y-8061700D01*
X13268320Y-7972700D02*
X13179320Y-8061700D01*
X13223820Y-7972700D02*
X13223820Y-8061700D01*
X13179320Y-8017200D02*
X13268320Y-8017200D01*
X13224260Y-10336200D02*
X13313260Y-10425200D01*
X13313260Y-10336200D02*
X13224260Y-10425200D01*
X13268760Y-10336200D02*
X13268760Y-10425200D01*
X13224260Y-10380700D02*
X13313260Y-10380700D01*
X13224260Y-10590200D02*
X13313260Y-10679200D01*
X13313260Y-10590200D02*
X13224260Y-10679200D01*
X13268760Y-10590200D02*
X13268760Y-10679200D01*
X13224260Y-10634700D02*
X13313260Y-10634700D01*
X17118400Y-7896000D02*
X17218400Y-7996000D01*
X17218400Y-7896000D02*
X17118400Y-7996000D01*
X17203756Y-7981356D02*
X17203756Y-7910644D01*
X17133044Y-7910644D01*
X17133044Y-7981356D01*
X17203756Y-7981356D01*
X17372400Y-7896000D02*
X17472400Y-7996000D01*
X17472400Y-7896000D02*
X17372400Y-7996000D01*
X17457756Y-7981356D02*
X17457756Y-7910644D01*
X17387044Y-7910644D01*
X17387044Y-7981356D01*
X17457756Y-7981356D01*
X17626400Y-7896000D02*
X17726400Y-7996000D01*
X17726400Y-7896000D02*
X17626400Y-7996000D01*
X17711756Y-7981356D02*
X17711756Y-7910644D01*
X17641044Y-7910644D01*
X17641044Y-7981356D01*
X17711756Y-7981356D01*
X17880400Y-7896000D02*
X17980400Y-7996000D01*
X17980400Y-7896000D02*
X17880400Y-7996000D01*
X17965756Y-7981356D02*
X17965756Y-7910644D01*
X17895044Y-7910644D01*
X17895044Y-7981356D01*
X17965756Y-7981356D01*
X12615320Y-7154700D02*
X12816320Y-7355700D01*
X12816320Y-7154700D02*
X12615320Y-7355700D01*
X12715820Y-7355700D02*
X12816320Y-7255200D01*
X12715820Y-7154700D01*
X12615320Y-7255200D01*
X12715820Y-7355700D01*
X12615320Y-8170700D02*
X12816320Y-8371700D01*
X12816320Y-8170700D02*
X12615320Y-8371700D01*
X12715820Y-8371700D02*
X12816320Y-8271200D01*
X12715820Y-8170700D01*
X12615320Y-8271200D01*
X12715820Y-8371700D01*
X12660260Y-9772200D02*
X12861260Y-9973200D01*
X12861260Y-9772200D02*
X12660260Y-9973200D01*
X12760760Y-9973200D02*
X12861260Y-9872700D01*
X12760760Y-9772200D01*
X12660260Y-9872700D01*
X12760760Y-9973200D01*
X12660260Y-10788200D02*
X12861260Y-10989200D01*
X12861260Y-10788200D02*
X12660260Y-10989200D01*
X12760760Y-10989200D02*
X12861260Y-10888700D01*
X12760760Y-10788200D01*
X12660260Y-10888700D01*
X12760760Y-10989200D01*
D12*
X12233928Y-11845714D02*
X12233928Y-11545714D01*
X12305357Y-11545714D01*
X12348214Y-11560000D01*
X12376786Y-11588571D01*
X12391071Y-11617143D01*
X12405357Y-11674286D01*
X12405357Y-11717143D01*
X12391071Y-11774286D01*
X12376786Y-11802857D01*
X12348214Y-11831429D01*
X12305357Y-11845714D01*
X12233928Y-11845714D01*
X12533928Y-11845714D02*
X12533928Y-11645714D01*
X12533928Y-11702857D02*
X12548214Y-11674286D01*
X12562500Y-11660000D01*
X12591071Y-11645714D01*
X12619643Y-11645714D01*
X12719643Y-11845714D02*
X12719643Y-11645714D01*
X12719643Y-11545714D02*
X12705357Y-11560000D01*
X12719643Y-11574286D01*
X12733928Y-11560000D01*
X12719643Y-11545714D01*
X12719643Y-11574286D01*
X12905357Y-11845714D02*
X12876786Y-11831429D01*
X12862500Y-11802857D01*
X12862500Y-11545714D01*
X13062500Y-11845714D02*
X13033928Y-11831429D01*
X13019643Y-11802857D01*
X13019643Y-11545714D01*
X13405357Y-11845714D02*
X13405357Y-11545714D01*
X13505357Y-11760000D01*
X13605357Y-11545714D01*
X13605357Y-11845714D01*
X13876786Y-11845714D02*
X13876786Y-11688571D01*
X13862500Y-11660000D01*
X13833928Y-11645714D01*
X13776786Y-11645714D01*
X13748214Y-11660000D01*
X13876786Y-11831429D02*
X13848214Y-11845714D01*
X13776786Y-11845714D01*
X13748214Y-11831429D01*
X13733928Y-11802857D01*
X13733928Y-11774286D01*
X13748214Y-11745714D01*
X13776786Y-11731429D01*
X13848214Y-11731429D01*
X13876786Y-11717143D01*
X14019643Y-11645714D02*
X14019643Y-11945714D01*
X14019643Y-11660000D02*
X14048214Y-11645714D01*
X14105357Y-11645714D01*
X14133928Y-11660000D01*
X14148214Y-11674286D01*
X14162500Y-11702857D01*
X14162500Y-11788571D01*
X14148214Y-11817143D01*
X14133928Y-11831429D01*
X14105357Y-11845714D01*
X14048214Y-11845714D01*
X14019643Y-11831429D01*
X14291071Y-11817143D02*
X14305357Y-11831429D01*
X14291071Y-11845714D01*
X14276786Y-11831429D01*
X14291071Y-11817143D01*
X14291071Y-11845714D01*
X14291071Y-11660000D02*
X14305357Y-11674286D01*
X14291071Y-11688571D01*
X14276786Y-11674286D01*
X14291071Y-11660000D01*
X14291071Y-11688571D01*
X11907500Y-12320000D02*
X11947500Y-12360000D01*
X11947500Y-12320000D02*
X11907500Y-12360000D01*
X12291071Y-12175714D02*
X12319643Y-12175714D01*
X12348214Y-12190000D01*
X12362500Y-12204286D01*
X12376786Y-12232857D01*
X12391071Y-12290000D01*
X12391071Y-12361429D01*
X12376786Y-12418571D01*
X12362500Y-12447143D01*
X12348214Y-12461429D01*
X12319643Y-12475714D01*
X12291071Y-12475714D01*
X12262500Y-12461429D01*
X12248214Y-12447143D01*
X12233928Y-12418571D01*
X12219643Y-12361429D01*
X12219643Y-12290000D01*
X12233928Y-12232857D01*
X12248214Y-12204286D01*
X12262500Y-12190000D01*
X12291071Y-12175714D01*
X12519643Y-12447143D02*
X12533928Y-12461429D01*
X12519643Y-12475714D01*
X12505357Y-12461429D01*
X12519643Y-12447143D01*
X12519643Y-12475714D01*
X12791071Y-12275714D02*
X12791071Y-12475714D01*
X12719643Y-12161429D02*
X12648214Y-12375714D01*
X12833928Y-12375714D01*
X13005357Y-12175714D02*
X13033928Y-12175714D01*
X13062500Y-12190000D01*
X13076786Y-12204286D01*
X13091071Y-12232857D01*
X13105357Y-12290000D01*
X13105357Y-12361429D01*
X13091071Y-12418571D01*
X13076786Y-12447143D01*
X13062500Y-12461429D01*
X13033928Y-12475714D01*
X13005357Y-12475714D01*
X12976786Y-12461429D01*
X12962500Y-12447143D01*
X12948214Y-12418571D01*
X12933928Y-12361429D01*
X12933928Y-12290000D01*
X12948214Y-12232857D01*
X12962500Y-12204286D01*
X12976786Y-12190000D01*
X13005357Y-12175714D01*
X13291071Y-12175714D02*
X13319643Y-12175714D01*
X13348214Y-12190000D01*
X13362500Y-12204286D01*
X13376786Y-12232857D01*
X13391071Y-12290000D01*
X13391071Y-12361429D01*
X13376786Y-12418571D01*
X13362500Y-12447143D01*
X13348214Y-12461429D01*
X13319643Y-12475714D01*
X13291071Y-12475714D01*
X13262500Y-12461429D01*
X13248214Y-12447143D01*
X13233928Y-12418571D01*
X13219643Y-12361429D01*
X13219643Y-12290000D01*
X13233928Y-12232857D01*
X13248214Y-12204286D01*
X13262500Y-12190000D01*
X13291071Y-12175714D01*
X13519643Y-12475714D02*
X13519643Y-12275714D01*
X13519643Y-12304286D02*
X13533928Y-12290000D01*
X13562500Y-12275714D01*
X13605357Y-12275714D01*
X13633928Y-12290000D01*
X13648214Y-12318571D01*
X13648214Y-12475714D01*
X13648214Y-12318571D02*
X13662500Y-12290000D01*
X13691071Y-12275714D01*
X13733928Y-12275714D01*
X13762500Y-12290000D01*
X13776786Y-12318571D01*
X13776786Y-12475714D01*
X13919643Y-12475714D02*
X13919643Y-12275714D01*
X13919643Y-12304286D02*
X13933928Y-12290000D01*
X13962500Y-12275714D01*
X14005357Y-12275714D01*
X14033928Y-12290000D01*
X14048214Y-12318571D01*
X14048214Y-12475714D01*
X14048214Y-12318571D02*
X14062500Y-12290000D01*
X14091071Y-12275714D01*
X14133928Y-12275714D01*
X14162500Y-12290000D01*
X14176786Y-12318571D01*
X14176786Y-12475714D01*
X14762500Y-12161429D02*
X14505357Y-12547143D01*
X15148214Y-12175714D02*
X15176786Y-12175714D01*
X15205357Y-12190000D01*
X15219643Y-12204286D01*
X15233928Y-12232857D01*
X15248214Y-12290000D01*
X15248214Y-12361429D01*
X15233928Y-12418571D01*
X15219643Y-12447143D01*
X15205357Y-12461429D01*
X15176786Y-12475714D01*
X15148214Y-12475714D01*
X15119643Y-12461429D01*
X15105357Y-12447143D01*
X15091071Y-12418571D01*
X15076786Y-12361429D01*
X15076786Y-12290000D01*
X15091071Y-12232857D01*
X15105357Y-12204286D01*
X15119643Y-12190000D01*
X15148214Y-12175714D01*
X15376786Y-12447143D02*
X15391071Y-12461429D01*
X15376786Y-12475714D01*
X15362500Y-12461429D01*
X15376786Y-12447143D01*
X15376786Y-12475714D01*
X15576786Y-12175714D02*
X15605357Y-12175714D01*
X15633928Y-12190000D01*
X15648214Y-12204286D01*
X15662500Y-12232857D01*
X15676786Y-12290000D01*
X15676786Y-12361429D01*
X15662500Y-12418571D01*
X15648214Y-12447143D01*
X15633928Y-12461429D01*
X15605357Y-12475714D01*
X15576786Y-12475714D01*
X15548214Y-12461429D01*
X15533928Y-12447143D01*
X15519643Y-12418571D01*
X15505357Y-12361429D01*
X15505357Y-12290000D01*
X15519643Y-12232857D01*
X15533928Y-12204286D01*
X15548214Y-12190000D01*
X15576786Y-12175714D01*
X15962500Y-12475714D02*
X15791071Y-12475714D01*
X15876786Y-12475714D02*
X15876786Y-12175714D01*
X15848214Y-12218571D01*
X15819643Y-12247143D01*
X15791071Y-12261429D01*
X16233928Y-12175714D02*
X16091071Y-12175714D01*
X16076786Y-12318571D01*
X16091071Y-12304286D01*
X16119643Y-12290000D01*
X16191071Y-12290000D01*
X16219643Y-12304286D01*
X16233928Y-12318571D01*
X16248214Y-12347143D01*
X16248214Y-12418571D01*
X16233928Y-12447143D01*
X16219643Y-12461429D01*
X16191071Y-12475714D01*
X16119643Y-12475714D01*
X16091071Y-12461429D01*
X16076786Y-12447143D01*
X16348214Y-12175714D02*
X16548214Y-12175714D01*
X16419643Y-12475714D01*
X16648214Y-12175714D02*
X16648214Y-12232857D01*
X16762500Y-12175714D02*
X16762500Y-12232857D01*
X17205357Y-12590000D02*
X17191071Y-12575714D01*
X17162500Y-12532857D01*
X17148214Y-12504286D01*
X17133928Y-12461429D01*
X17119643Y-12390000D01*
X17119643Y-12332857D01*
X17133928Y-12261429D01*
X17148214Y-12218571D01*
X17162500Y-12190000D01*
X17191071Y-12147143D01*
X17205357Y-12132857D01*
X17305357Y-12204286D02*
X17319643Y-12190000D01*
X17348214Y-12175714D01*
X17419643Y-12175714D01*
X17448214Y-12190000D01*
X17462500Y-12204286D01*
X17476786Y-12232857D01*
X17476786Y-12261429D01*
X17462500Y-12304286D01*
X17291071Y-12475714D01*
X17476786Y-12475714D01*
X17591071Y-12204286D02*
X17605357Y-12190000D01*
X17633928Y-12175714D01*
X17705357Y-12175714D01*
X17733928Y-12190000D01*
X17748214Y-12204286D01*
X17762500Y-12232857D01*
X17762500Y-12261429D01*
X17748214Y-12304286D01*
X17576786Y-12475714D01*
X17762500Y-12475714D01*
X18119643Y-12475714D02*
X18119643Y-12175714D01*
X18248214Y-12475714D02*
X18248214Y-12318571D01*
X18233928Y-12290000D01*
X18205357Y-12275714D01*
X18162500Y-12275714D01*
X18133928Y-12290000D01*
X18119643Y-12304286D01*
X18433928Y-12475714D02*
X18405357Y-12461429D01*
X18391071Y-12447143D01*
X18376786Y-12418571D01*
X18376786Y-12332857D01*
X18391071Y-12304286D01*
X18405357Y-12290000D01*
X18433928Y-12275714D01*
X18476786Y-12275714D01*
X18505357Y-12290000D01*
X18519643Y-12304286D01*
X18533928Y-12332857D01*
X18533928Y-12418571D01*
X18519643Y-12447143D01*
X18505357Y-12461429D01*
X18476786Y-12475714D01*
X18433928Y-12475714D01*
X18705357Y-12475714D02*
X18676786Y-12461429D01*
X18662500Y-12432857D01*
X18662500Y-12175714D01*
X18933928Y-12461429D02*
X18905357Y-12475714D01*
X18848214Y-12475714D01*
X18819643Y-12461429D01*
X18805357Y-12432857D01*
X18805357Y-12318571D01*
X18819643Y-12290000D01*
X18848214Y-12275714D01*
X18905357Y-12275714D01*
X18933928Y-12290000D01*
X18948214Y-12318571D01*
X18948214Y-12347143D01*
X18805357Y-12375714D01*
X19062500Y-12461429D02*
X19091071Y-12475714D01*
X19148214Y-12475714D01*
X19176786Y-12461429D01*
X19191071Y-12432857D01*
X19191071Y-12418571D01*
X19176786Y-12390000D01*
X19148214Y-12375714D01*
X19105357Y-12375714D01*
X19076786Y-12361429D01*
X19062500Y-12332857D01*
X19062500Y-12318571D01*
X19076786Y-12290000D01*
X19105357Y-12275714D01*
X19148214Y-12275714D01*
X19176786Y-12290000D01*
X19291071Y-12590000D02*
X19305357Y-12575714D01*
X19333928Y-12532857D01*
X19348214Y-12504286D01*
X19362500Y-12461429D01*
X19376786Y-12390000D01*
X19376786Y-12332857D01*
X19362500Y-12261429D01*
X19348214Y-12218571D01*
X19333928Y-12190000D01*
X19305357Y-12147143D01*
X19291071Y-12132857D01*
X11947500Y-12736000D02*
G75*
G03*
X11947500Y-12736000I-25400J0D01*
G01*
X12291071Y-12571714D02*
X12319643Y-12571714D01*
X12348214Y-12586000D01*
X12362500Y-12600286D01*
X12376786Y-12628857D01*
X12391071Y-12686000D01*
X12391071Y-12757429D01*
X12376786Y-12814571D01*
X12362500Y-12843143D01*
X12348214Y-12857429D01*
X12319643Y-12871714D01*
X12291071Y-12871714D01*
X12262500Y-12857429D01*
X12248214Y-12843143D01*
X12233928Y-12814571D01*
X12219643Y-12757429D01*
X12219643Y-12686000D01*
X12233928Y-12628857D01*
X12248214Y-12600286D01*
X12262500Y-12586000D01*
X12291071Y-12571714D01*
X12519643Y-12843143D02*
X12533928Y-12857429D01*
X12519643Y-12871714D01*
X12505357Y-12857429D01*
X12519643Y-12843143D01*
X12519643Y-12871714D01*
X12805357Y-12571714D02*
X12662500Y-12571714D01*
X12648214Y-12714571D01*
X12662500Y-12700286D01*
X12691071Y-12686000D01*
X12762500Y-12686000D01*
X12791071Y-12700286D01*
X12805357Y-12714571D01*
X12819643Y-12743143D01*
X12819643Y-12814571D01*
X12805357Y-12843143D01*
X12791071Y-12857429D01*
X12762500Y-12871714D01*
X12691071Y-12871714D01*
X12662500Y-12857429D01*
X12648214Y-12843143D01*
X13005357Y-12571714D02*
X13033928Y-12571714D01*
X13062500Y-12586000D01*
X13076786Y-12600286D01*
X13091071Y-12628857D01*
X13105357Y-12686000D01*
X13105357Y-12757429D01*
X13091071Y-12814571D01*
X13076786Y-12843143D01*
X13062500Y-12857429D01*
X13033928Y-12871714D01*
X13005357Y-12871714D01*
X12976786Y-12857429D01*
X12962500Y-12843143D01*
X12948214Y-12814571D01*
X12933928Y-12757429D01*
X12933928Y-12686000D01*
X12948214Y-12628857D01*
X12962500Y-12600286D01*
X12976786Y-12586000D01*
X13005357Y-12571714D01*
X13276786Y-12700286D02*
X13248214Y-12686000D01*
X13233928Y-12671714D01*
X13219643Y-12643143D01*
X13219643Y-12628857D01*
X13233928Y-12600286D01*
X13248214Y-12586000D01*
X13276786Y-12571714D01*
X13333928Y-12571714D01*
X13362500Y-12586000D01*
X13376786Y-12600286D01*
X13391071Y-12628857D01*
X13391071Y-12643143D01*
X13376786Y-12671714D01*
X13362500Y-12686000D01*
X13333928Y-12700286D01*
X13276786Y-12700286D01*
X13248214Y-12714571D01*
X13233928Y-12728857D01*
X13219643Y-12757429D01*
X13219643Y-12814571D01*
X13233928Y-12843143D01*
X13248214Y-12857429D01*
X13276786Y-12871714D01*
X13333928Y-12871714D01*
X13362500Y-12857429D01*
X13376786Y-12843143D01*
X13391071Y-12814571D01*
X13391071Y-12757429D01*
X13376786Y-12728857D01*
X13362500Y-12714571D01*
X13333928Y-12700286D01*
X13519643Y-12871714D02*
X13519643Y-12671714D01*
X13519643Y-12700286D02*
X13533928Y-12686000D01*
X13562500Y-12671714D01*
X13605357Y-12671714D01*
X13633928Y-12686000D01*
X13648214Y-12714571D01*
X13648214Y-12871714D01*
X13648214Y-12714571D02*
X13662500Y-12686000D01*
X13691071Y-12671714D01*
X13733928Y-12671714D01*
X13762500Y-12686000D01*
X13776786Y-12714571D01*
X13776786Y-12871714D01*
X13919643Y-12871714D02*
X13919643Y-12671714D01*
X13919643Y-12700286D02*
X13933928Y-12686000D01*
X13962500Y-12671714D01*
X14005357Y-12671714D01*
X14033928Y-12686000D01*
X14048214Y-12714571D01*
X14048214Y-12871714D01*
X14048214Y-12714571D02*
X14062500Y-12686000D01*
X14091071Y-12671714D01*
X14133928Y-12671714D01*
X14162500Y-12686000D01*
X14176786Y-12714571D01*
X14176786Y-12871714D01*
X14762500Y-12557429D02*
X14505357Y-12943143D01*
X15148214Y-12571714D02*
X15176786Y-12571714D01*
X15205357Y-12586000D01*
X15219643Y-12600286D01*
X15233928Y-12628857D01*
X15248214Y-12686000D01*
X15248214Y-12757429D01*
X15233928Y-12814571D01*
X15219643Y-12843143D01*
X15205357Y-12857429D01*
X15176786Y-12871714D01*
X15148214Y-12871714D01*
X15119643Y-12857429D01*
X15105357Y-12843143D01*
X15091071Y-12814571D01*
X15076786Y-12757429D01*
X15076786Y-12686000D01*
X15091071Y-12628857D01*
X15105357Y-12600286D01*
X15119643Y-12586000D01*
X15148214Y-12571714D01*
X15376786Y-12843143D02*
X15391071Y-12857429D01*
X15376786Y-12871714D01*
X15362500Y-12857429D01*
X15376786Y-12843143D01*
X15376786Y-12871714D01*
X15576786Y-12571714D02*
X15605357Y-12571714D01*
X15633928Y-12586000D01*
X15648214Y-12600286D01*
X15662500Y-12628857D01*
X15676786Y-12686000D01*
X15676786Y-12757429D01*
X15662500Y-12814571D01*
X15648214Y-12843143D01*
X15633928Y-12857429D01*
X15605357Y-12871714D01*
X15576786Y-12871714D01*
X15548214Y-12857429D01*
X15533928Y-12843143D01*
X15519643Y-12814571D01*
X15505357Y-12757429D01*
X15505357Y-12686000D01*
X15519643Y-12628857D01*
X15533928Y-12600286D01*
X15548214Y-12586000D01*
X15576786Y-12571714D01*
X15791071Y-12600286D02*
X15805357Y-12586000D01*
X15833928Y-12571714D01*
X15905357Y-12571714D01*
X15933928Y-12586000D01*
X15948214Y-12600286D01*
X15962500Y-12628857D01*
X15962500Y-12657429D01*
X15948214Y-12700286D01*
X15776786Y-12871714D01*
X15962500Y-12871714D01*
X16148214Y-12571714D02*
X16176786Y-12571714D01*
X16205357Y-12586000D01*
X16219643Y-12600286D01*
X16233928Y-12628857D01*
X16248214Y-12686000D01*
X16248214Y-12757429D01*
X16233928Y-12814571D01*
X16219643Y-12843143D01*
X16205357Y-12857429D01*
X16176786Y-12871714D01*
X16148214Y-12871714D01*
X16119643Y-12857429D01*
X16105357Y-12843143D01*
X16091071Y-12814571D01*
X16076786Y-12757429D01*
X16076786Y-12686000D01*
X16091071Y-12628857D01*
X16105357Y-12600286D01*
X16119643Y-12586000D01*
X16148214Y-12571714D01*
X16433928Y-12571714D02*
X16462500Y-12571714D01*
X16491071Y-12586000D01*
X16505357Y-12600286D01*
X16519643Y-12628857D01*
X16533928Y-12686000D01*
X16533928Y-12757429D01*
X16519643Y-12814571D01*
X16505357Y-12843143D01*
X16491071Y-12857429D01*
X16462500Y-12871714D01*
X16433928Y-12871714D01*
X16405357Y-12857429D01*
X16391071Y-12843143D01*
X16376786Y-12814571D01*
X16362500Y-12757429D01*
X16362500Y-12686000D01*
X16376786Y-12628857D01*
X16391071Y-12600286D01*
X16405357Y-12586000D01*
X16433928Y-12571714D01*
X16648214Y-12571714D02*
X16648214Y-12628857D01*
X16762500Y-12571714D02*
X16762500Y-12628857D01*
X17205357Y-12986000D02*
X17191071Y-12971714D01*
X17162500Y-12928857D01*
X17148214Y-12900286D01*
X17133928Y-12857429D01*
X17119643Y-12786000D01*
X17119643Y-12728857D01*
X17133928Y-12657429D01*
X17148214Y-12614571D01*
X17162500Y-12586000D01*
X17191071Y-12543143D01*
X17205357Y-12528857D01*
X17448214Y-12571714D02*
X17391071Y-12571714D01*
X17362500Y-12586000D01*
X17348214Y-12600286D01*
X17319643Y-12643143D01*
X17305357Y-12700286D01*
X17305357Y-12814571D01*
X17319643Y-12843143D01*
X17333928Y-12857429D01*
X17362500Y-12871714D01*
X17419643Y-12871714D01*
X17448214Y-12857429D01*
X17462500Y-12843143D01*
X17476786Y-12814571D01*
X17476786Y-12743143D01*
X17462500Y-12714571D01*
X17448214Y-12700286D01*
X17419643Y-12686000D01*
X17362500Y-12686000D01*
X17333928Y-12700286D01*
X17319643Y-12714571D01*
X17305357Y-12743143D01*
X17833928Y-12871714D02*
X17833928Y-12571714D01*
X17962500Y-12871714D02*
X17962500Y-12714571D01*
X17948214Y-12686000D01*
X17919643Y-12671714D01*
X17876786Y-12671714D01*
X17848214Y-12686000D01*
X17833928Y-12700286D01*
X18148214Y-12871714D02*
X18119643Y-12857429D01*
X18105357Y-12843143D01*
X18091071Y-12814571D01*
X18091071Y-12728857D01*
X18105357Y-12700286D01*
X18119643Y-12686000D01*
X18148214Y-12671714D01*
X18191071Y-12671714D01*
X18219643Y-12686000D01*
X18233928Y-12700286D01*
X18248214Y-12728857D01*
X18248214Y-12814571D01*
X18233928Y-12843143D01*
X18219643Y-12857429D01*
X18191071Y-12871714D01*
X18148214Y-12871714D01*
X18419643Y-12871714D02*
X18391071Y-12857429D01*
X18376786Y-12828857D01*
X18376786Y-12571714D01*
X18648214Y-12857429D02*
X18619643Y-12871714D01*
X18562500Y-12871714D01*
X18533928Y-12857429D01*
X18519643Y-12828857D01*
X18519643Y-12714571D01*
X18533928Y-12686000D01*
X18562500Y-12671714D01*
X18619643Y-12671714D01*
X18648214Y-12686000D01*
X18662500Y-12714571D01*
X18662500Y-12743143D01*
X18519643Y-12771714D01*
X18776786Y-12857429D02*
X18805357Y-12871714D01*
X18862500Y-12871714D01*
X18891071Y-12857429D01*
X18905357Y-12828857D01*
X18905357Y-12814571D01*
X18891071Y-12786000D01*
X18862500Y-12771714D01*
X18819643Y-12771714D01*
X18791071Y-12757429D01*
X18776786Y-12728857D01*
X18776786Y-12714571D01*
X18791071Y-12686000D01*
X18819643Y-12671714D01*
X18862500Y-12671714D01*
X18891071Y-12686000D01*
X19005357Y-12986000D02*
X19019643Y-12971714D01*
X19048214Y-12928857D01*
X19062500Y-12900286D01*
X19076786Y-12857429D01*
X19091071Y-12786000D01*
X19091071Y-12728857D01*
X19076786Y-12657429D01*
X19062500Y-12614571D01*
X19048214Y-12586000D01*
X19019643Y-12543143D01*
X19005357Y-12528857D01*
X11915000Y-13099500D02*
X11915000Y-13164500D01*
X11882500Y-13132000D02*
X11947500Y-13132000D01*
X12291071Y-12967714D02*
X12319643Y-12967714D01*
X12348214Y-12982000D01*
X12362500Y-12996286D01*
X12376786Y-13024857D01*
X12391071Y-13082000D01*
X12391071Y-13153429D01*
X12376786Y-13210571D01*
X12362500Y-13239143D01*
X12348214Y-13253429D01*
X12319643Y-13267714D01*
X12291071Y-13267714D01*
X12262500Y-13253429D01*
X12248214Y-13239143D01*
X12233928Y-13210571D01*
X12219643Y-13153429D01*
X12219643Y-13082000D01*
X12233928Y-13024857D01*
X12248214Y-12996286D01*
X12262500Y-12982000D01*
X12291071Y-12967714D01*
X12519643Y-13239143D02*
X12533928Y-13253429D01*
X12519643Y-13267714D01*
X12505357Y-13253429D01*
X12519643Y-13239143D01*
X12519643Y-13267714D01*
X12791071Y-12967714D02*
X12733928Y-12967714D01*
X12705357Y-12982000D01*
X12691071Y-12996286D01*
X12662500Y-13039143D01*
X12648214Y-13096286D01*
X12648214Y-13210571D01*
X12662500Y-13239143D01*
X12676786Y-13253429D01*
X12705357Y-13267714D01*
X12762500Y-13267714D01*
X12791071Y-13253429D01*
X12805357Y-13239143D01*
X12819643Y-13210571D01*
X12819643Y-13139143D01*
X12805357Y-13110571D01*
X12791071Y-13096286D01*
X12762500Y-13082000D01*
X12705357Y-13082000D01*
X12676786Y-13096286D01*
X12662500Y-13110571D01*
X12648214Y-13139143D01*
X13091071Y-12967714D02*
X12948214Y-12967714D01*
X12933928Y-13110571D01*
X12948214Y-13096286D01*
X12976786Y-13082000D01*
X13048214Y-13082000D01*
X13076786Y-13096286D01*
X13091071Y-13110571D01*
X13105357Y-13139143D01*
X13105357Y-13210571D01*
X13091071Y-13239143D01*
X13076786Y-13253429D01*
X13048214Y-13267714D01*
X12976786Y-13267714D01*
X12948214Y-13253429D01*
X12933928Y-13239143D01*
X13291071Y-12967714D02*
X13319643Y-12967714D01*
X13348214Y-12982000D01*
X13362500Y-12996286D01*
X13376786Y-13024857D01*
X13391071Y-13082000D01*
X13391071Y-13153429D01*
X13376786Y-13210571D01*
X13362500Y-13239143D01*
X13348214Y-13253429D01*
X13319643Y-13267714D01*
X13291071Y-13267714D01*
X13262500Y-13253429D01*
X13248214Y-13239143D01*
X13233928Y-13210571D01*
X13219643Y-13153429D01*
X13219643Y-13082000D01*
X13233928Y-13024857D01*
X13248214Y-12996286D01*
X13262500Y-12982000D01*
X13291071Y-12967714D01*
X13519643Y-13267714D02*
X13519643Y-13067714D01*
X13519643Y-13096286D02*
X13533928Y-13082000D01*
X13562500Y-13067714D01*
X13605357Y-13067714D01*
X13633928Y-13082000D01*
X13648214Y-13110571D01*
X13648214Y-13267714D01*
X13648214Y-13110571D02*
X13662500Y-13082000D01*
X13691071Y-13067714D01*
X13733928Y-13067714D01*
X13762500Y-13082000D01*
X13776786Y-13110571D01*
X13776786Y-13267714D01*
X13919643Y-13267714D02*
X13919643Y-13067714D01*
X13919643Y-13096286D02*
X13933928Y-13082000D01*
X13962500Y-13067714D01*
X14005357Y-13067714D01*
X14033928Y-13082000D01*
X14048214Y-13110571D01*
X14048214Y-13267714D01*
X14048214Y-13110571D02*
X14062500Y-13082000D01*
X14091071Y-13067714D01*
X14133928Y-13067714D01*
X14162500Y-13082000D01*
X14176786Y-13110571D01*
X14176786Y-13267714D01*
X14762500Y-12953429D02*
X14505357Y-13339143D01*
X15148214Y-12967714D02*
X15176786Y-12967714D01*
X15205357Y-12982000D01*
X15219643Y-12996286D01*
X15233928Y-13024857D01*
X15248214Y-13082000D01*
X15248214Y-13153429D01*
X15233928Y-13210571D01*
X15219643Y-13239143D01*
X15205357Y-13253429D01*
X15176786Y-13267714D01*
X15148214Y-13267714D01*
X15119643Y-13253429D01*
X15105357Y-13239143D01*
X15091071Y-13210571D01*
X15076786Y-13153429D01*
X15076786Y-13082000D01*
X15091071Y-13024857D01*
X15105357Y-12996286D01*
X15119643Y-12982000D01*
X15148214Y-12967714D01*
X15376786Y-13239143D02*
X15391071Y-13253429D01*
X15376786Y-13267714D01*
X15362500Y-13253429D01*
X15376786Y-13239143D01*
X15376786Y-13267714D01*
X15576786Y-12967714D02*
X15605357Y-12967714D01*
X15633928Y-12982000D01*
X15648214Y-12996286D01*
X15662500Y-13024857D01*
X15676786Y-13082000D01*
X15676786Y-13153429D01*
X15662500Y-13210571D01*
X15648214Y-13239143D01*
X15633928Y-13253429D01*
X15605357Y-13267714D01*
X15576786Y-13267714D01*
X15548214Y-13253429D01*
X15533928Y-13239143D01*
X15519643Y-13210571D01*
X15505357Y-13153429D01*
X15505357Y-13082000D01*
X15519643Y-13024857D01*
X15533928Y-12996286D01*
X15548214Y-12982000D01*
X15576786Y-12967714D01*
X15791071Y-12996286D02*
X15805357Y-12982000D01*
X15833928Y-12967714D01*
X15905357Y-12967714D01*
X15933928Y-12982000D01*
X15948214Y-12996286D01*
X15962500Y-13024857D01*
X15962500Y-13053429D01*
X15948214Y-13096286D01*
X15776786Y-13267714D01*
X15962500Y-13267714D01*
X16233928Y-12967714D02*
X16091071Y-12967714D01*
X16076786Y-13110571D01*
X16091071Y-13096286D01*
X16119643Y-13082000D01*
X16191071Y-13082000D01*
X16219643Y-13096286D01*
X16233928Y-13110571D01*
X16248214Y-13139143D01*
X16248214Y-13210571D01*
X16233928Y-13239143D01*
X16219643Y-13253429D01*
X16191071Y-13267714D01*
X16119643Y-13267714D01*
X16091071Y-13253429D01*
X16076786Y-13239143D01*
X16505357Y-12967714D02*
X16448214Y-12967714D01*
X16419643Y-12982000D01*
X16405357Y-12996286D01*
X16376786Y-13039143D01*
X16362500Y-13096286D01*
X16362500Y-13210571D01*
X16376786Y-13239143D01*
X16391071Y-13253429D01*
X16419643Y-13267714D01*
X16476786Y-13267714D01*
X16505357Y-13253429D01*
X16519643Y-13239143D01*
X16533928Y-13210571D01*
X16533928Y-13139143D01*
X16519643Y-13110571D01*
X16505357Y-13096286D01*
X16476786Y-13082000D01*
X16419643Y-13082000D01*
X16391071Y-13096286D01*
X16376786Y-13110571D01*
X16362500Y-13139143D01*
X16648214Y-12967714D02*
X16648214Y-13024857D01*
X16762500Y-12967714D02*
X16762500Y-13024857D01*
X17205357Y-13382000D02*
X17191071Y-13367714D01*
X17162500Y-13324857D01*
X17148214Y-13296286D01*
X17133928Y-13253429D01*
X17119643Y-13182000D01*
X17119643Y-13124857D01*
X17133928Y-13053429D01*
X17148214Y-13010571D01*
X17162500Y-12982000D01*
X17191071Y-12939143D01*
X17205357Y-12924857D01*
X17376786Y-12967714D02*
X17405357Y-12967714D01*
X17433928Y-12982000D01*
X17448214Y-12996286D01*
X17462500Y-13024857D01*
X17476786Y-13082000D01*
X17476786Y-13153429D01*
X17462500Y-13210571D01*
X17448214Y-13239143D01*
X17433928Y-13253429D01*
X17405357Y-13267714D01*
X17376786Y-13267714D01*
X17348214Y-13253429D01*
X17333928Y-13239143D01*
X17319643Y-13210571D01*
X17305357Y-13153429D01*
X17305357Y-13082000D01*
X17319643Y-13024857D01*
X17333928Y-12996286D01*
X17348214Y-12982000D01*
X17376786Y-12967714D01*
X17833928Y-13267714D02*
X17833928Y-12967714D01*
X17962500Y-13267714D02*
X17962500Y-13110571D01*
X17948214Y-13082000D01*
X17919643Y-13067714D01*
X17876786Y-13067714D01*
X17848214Y-13082000D01*
X17833928Y-13096286D01*
X18148214Y-13267714D02*
X18119643Y-13253429D01*
X18105357Y-13239143D01*
X18091071Y-13210571D01*
X18091071Y-13124857D01*
X18105357Y-13096286D01*
X18119643Y-13082000D01*
X18148214Y-13067714D01*
X18191071Y-13067714D01*
X18219643Y-13082000D01*
X18233928Y-13096286D01*
X18248214Y-13124857D01*
X18248214Y-13210571D01*
X18233928Y-13239143D01*
X18219643Y-13253429D01*
X18191071Y-13267714D01*
X18148214Y-13267714D01*
X18419643Y-13267714D02*
X18391071Y-13253429D01*
X18376786Y-13224857D01*
X18376786Y-12967714D01*
X18648214Y-13253429D02*
X18619643Y-13267714D01*
X18562500Y-13267714D01*
X18533928Y-13253429D01*
X18519643Y-13224857D01*
X18519643Y-13110571D01*
X18533928Y-13082000D01*
X18562500Y-13067714D01*
X18619643Y-13067714D01*
X18648214Y-13082000D01*
X18662500Y-13110571D01*
X18662500Y-13139143D01*
X18519643Y-13167714D01*
X18776786Y-13253429D02*
X18805357Y-13267714D01*
X18862500Y-13267714D01*
X18891071Y-13253429D01*
X18905357Y-13224857D01*
X18905357Y-13210571D01*
X18891071Y-13182000D01*
X18862500Y-13167714D01*
X18819643Y-13167714D01*
X18791071Y-13153429D01*
X18776786Y-13124857D01*
X18776786Y-13110571D01*
X18791071Y-13082000D01*
X18819643Y-13067714D01*
X18862500Y-13067714D01*
X18891071Y-13082000D01*
X19262500Y-13153429D02*
X19491071Y-13153429D01*
X19376786Y-13267714D02*
X19376786Y-13039143D01*
X19848214Y-12996286D02*
X19862500Y-12982000D01*
X19891071Y-12967714D01*
X19962500Y-12967714D01*
X19991071Y-12982000D01*
X20005357Y-12996286D01*
X20019643Y-13024857D01*
X20019643Y-13053429D01*
X20005357Y-13096286D01*
X19833928Y-13267714D01*
X20019643Y-13267714D01*
X20362500Y-13253429D02*
X20391071Y-13267714D01*
X20448214Y-13267714D01*
X20476786Y-13253429D01*
X20491071Y-13224857D01*
X20491071Y-13210571D01*
X20476786Y-13182000D01*
X20448214Y-13167714D01*
X20405357Y-13167714D01*
X20376786Y-13153429D01*
X20362500Y-13124857D01*
X20362500Y-13110571D01*
X20376786Y-13082000D01*
X20405357Y-13067714D01*
X20448214Y-13067714D01*
X20476786Y-13082000D01*
X20662500Y-13267714D02*
X20633928Y-13253429D01*
X20619643Y-13224857D01*
X20619643Y-12967714D01*
X20819643Y-13267714D02*
X20791071Y-13253429D01*
X20776786Y-13239143D01*
X20762500Y-13210571D01*
X20762500Y-13124857D01*
X20776786Y-13096286D01*
X20791071Y-13082000D01*
X20819643Y-13067714D01*
X20862500Y-13067714D01*
X20891071Y-13082000D01*
X20905357Y-13096286D01*
X20919643Y-13124857D01*
X20919643Y-13210571D01*
X20905357Y-13239143D01*
X20891071Y-13253429D01*
X20862500Y-13267714D01*
X20819643Y-13267714D01*
X21005357Y-13067714D02*
X21119643Y-13067714D01*
X21048214Y-12967714D02*
X21048214Y-13224857D01*
X21062500Y-13253429D01*
X21091071Y-13267714D01*
X21119643Y-13267714D01*
X21205357Y-13253429D02*
X21233928Y-13267714D01*
X21291071Y-13267714D01*
X21319643Y-13253429D01*
X21333928Y-13224857D01*
X21333928Y-13210571D01*
X21319643Y-13182000D01*
X21291071Y-13167714D01*
X21248214Y-13167714D01*
X21219643Y-13153429D01*
X21205357Y-13124857D01*
X21205357Y-13110571D01*
X21219643Y-13082000D01*
X21248214Y-13067714D01*
X21291071Y-13067714D01*
X21319643Y-13082000D01*
X21433928Y-13382000D02*
X21448214Y-13367714D01*
X21476786Y-13324857D01*
X21491071Y-13296286D01*
X21505357Y-13253429D01*
X21519643Y-13182000D01*
X21519643Y-13124857D01*
X21505357Y-13053429D01*
X21491071Y-13010571D01*
X21476786Y-12982000D01*
X21448214Y-12939143D01*
X21433928Y-12924857D01*
X11937688Y-13551688D02*
X11937688Y-13504312D01*
X11890312Y-13504312D01*
X11890312Y-13551688D01*
X11937688Y-13551688D01*
X12291071Y-13363714D02*
X12319643Y-13363714D01*
X12348214Y-13378000D01*
X12362500Y-13392286D01*
X12376786Y-13420857D01*
X12391071Y-13478000D01*
X12391071Y-13549429D01*
X12376786Y-13606571D01*
X12362500Y-13635143D01*
X12348214Y-13649429D01*
X12319643Y-13663714D01*
X12291071Y-13663714D01*
X12262500Y-13649429D01*
X12248214Y-13635143D01*
X12233928Y-13606571D01*
X12219643Y-13549429D01*
X12219643Y-13478000D01*
X12233928Y-13420857D01*
X12248214Y-13392286D01*
X12262500Y-13378000D01*
X12291071Y-13363714D01*
X12519643Y-13635143D02*
X12533928Y-13649429D01*
X12519643Y-13663714D01*
X12505357Y-13649429D01*
X12519643Y-13635143D01*
X12519643Y-13663714D01*
X12791071Y-13363714D02*
X12733928Y-13363714D01*
X12705357Y-13378000D01*
X12691071Y-13392286D01*
X12662500Y-13435143D01*
X12648214Y-13492286D01*
X12648214Y-13606571D01*
X12662500Y-13635143D01*
X12676786Y-13649429D01*
X12705357Y-13663714D01*
X12762500Y-13663714D01*
X12791071Y-13649429D01*
X12805357Y-13635143D01*
X12819643Y-13606571D01*
X12819643Y-13535143D01*
X12805357Y-13506571D01*
X12791071Y-13492286D01*
X12762500Y-13478000D01*
X12705357Y-13478000D01*
X12676786Y-13492286D01*
X12662500Y-13506571D01*
X12648214Y-13535143D01*
X12919643Y-13363714D02*
X13119643Y-13363714D01*
X12991071Y-13663714D01*
X13291071Y-13363714D02*
X13319643Y-13363714D01*
X13348214Y-13378000D01*
X13362500Y-13392286D01*
X13376786Y-13420857D01*
X13391071Y-13478000D01*
X13391071Y-13549429D01*
X13376786Y-13606571D01*
X13362500Y-13635143D01*
X13348214Y-13649429D01*
X13319643Y-13663714D01*
X13291071Y-13663714D01*
X13262500Y-13649429D01*
X13248214Y-13635143D01*
X13233928Y-13606571D01*
X13219643Y-13549429D01*
X13219643Y-13478000D01*
X13233928Y-13420857D01*
X13248214Y-13392286D01*
X13262500Y-13378000D01*
X13291071Y-13363714D01*
X13519643Y-13663714D02*
X13519643Y-13463714D01*
X13519643Y-13492286D02*
X13533928Y-13478000D01*
X13562500Y-13463714D01*
X13605357Y-13463714D01*
X13633928Y-13478000D01*
X13648214Y-13506571D01*
X13648214Y-13663714D01*
X13648214Y-13506571D02*
X13662500Y-13478000D01*
X13691071Y-13463714D01*
X13733928Y-13463714D01*
X13762500Y-13478000D01*
X13776786Y-13506571D01*
X13776786Y-13663714D01*
X13919643Y-13663714D02*
X13919643Y-13463714D01*
X13919643Y-13492286D02*
X13933928Y-13478000D01*
X13962500Y-13463714D01*
X14005357Y-13463714D01*
X14033928Y-13478000D01*
X14048214Y-13506571D01*
X14048214Y-13663714D01*
X14048214Y-13506571D02*
X14062500Y-13478000D01*
X14091071Y-13463714D01*
X14133928Y-13463714D01*
X14162500Y-13478000D01*
X14176786Y-13506571D01*
X14176786Y-13663714D01*
X14762500Y-13349429D02*
X14505357Y-13735143D01*
X15148214Y-13363714D02*
X15176786Y-13363714D01*
X15205357Y-13378000D01*
X15219643Y-13392286D01*
X15233928Y-13420857D01*
X15248214Y-13478000D01*
X15248214Y-13549429D01*
X15233928Y-13606571D01*
X15219643Y-13635143D01*
X15205357Y-13649429D01*
X15176786Y-13663714D01*
X15148214Y-13663714D01*
X15119643Y-13649429D01*
X15105357Y-13635143D01*
X15091071Y-13606571D01*
X15076786Y-13549429D01*
X15076786Y-13478000D01*
X15091071Y-13420857D01*
X15105357Y-13392286D01*
X15119643Y-13378000D01*
X15148214Y-13363714D01*
X15376786Y-13635143D02*
X15391071Y-13649429D01*
X15376786Y-13663714D01*
X15362500Y-13649429D01*
X15376786Y-13635143D01*
X15376786Y-13663714D01*
X15576786Y-13363714D02*
X15605357Y-13363714D01*
X15633928Y-13378000D01*
X15648214Y-13392286D01*
X15662500Y-13420857D01*
X15676786Y-13478000D01*
X15676786Y-13549429D01*
X15662500Y-13606571D01*
X15648214Y-13635143D01*
X15633928Y-13649429D01*
X15605357Y-13663714D01*
X15576786Y-13663714D01*
X15548214Y-13649429D01*
X15533928Y-13635143D01*
X15519643Y-13606571D01*
X15505357Y-13549429D01*
X15505357Y-13478000D01*
X15519643Y-13420857D01*
X15533928Y-13392286D01*
X15548214Y-13378000D01*
X15576786Y-13363714D01*
X15791071Y-13392286D02*
X15805357Y-13378000D01*
X15833928Y-13363714D01*
X15905357Y-13363714D01*
X15933928Y-13378000D01*
X15948214Y-13392286D01*
X15962500Y-13420857D01*
X15962500Y-13449429D01*
X15948214Y-13492286D01*
X15776786Y-13663714D01*
X15962500Y-13663714D01*
X16219643Y-13363714D02*
X16162500Y-13363714D01*
X16133928Y-13378000D01*
X16119643Y-13392286D01*
X16091071Y-13435143D01*
X16076786Y-13492286D01*
X16076786Y-13606571D01*
X16091071Y-13635143D01*
X16105357Y-13649429D01*
X16133928Y-13663714D01*
X16191071Y-13663714D01*
X16219643Y-13649429D01*
X16233928Y-13635143D01*
X16248214Y-13606571D01*
X16248214Y-13535143D01*
X16233928Y-13506571D01*
X16219643Y-13492286D01*
X16191071Y-13478000D01*
X16133928Y-13478000D01*
X16105357Y-13492286D01*
X16091071Y-13506571D01*
X16076786Y-13535143D01*
X16505357Y-13463714D02*
X16505357Y-13663714D01*
X16433928Y-13349429D02*
X16362500Y-13563714D01*
X16548214Y-13563714D01*
X16648214Y-13363714D02*
X16648214Y-13420857D01*
X16762500Y-13363714D02*
X16762500Y-13420857D01*
X17205357Y-13778000D02*
X17191071Y-13763714D01*
X17162500Y-13720857D01*
X17148214Y-13692286D01*
X17133928Y-13649429D01*
X17119643Y-13578000D01*
X17119643Y-13520857D01*
X17133928Y-13449429D01*
X17148214Y-13406571D01*
X17162500Y-13378000D01*
X17191071Y-13335143D01*
X17205357Y-13320857D01*
X17362500Y-13492286D02*
X17333928Y-13478000D01*
X17319643Y-13463714D01*
X17305357Y-13435143D01*
X17305357Y-13420857D01*
X17319643Y-13392286D01*
X17333928Y-13378000D01*
X17362500Y-13363714D01*
X17419643Y-13363714D01*
X17448214Y-13378000D01*
X17462500Y-13392286D01*
X17476786Y-13420857D01*
X17476786Y-13435143D01*
X17462500Y-13463714D01*
X17448214Y-13478000D01*
X17419643Y-13492286D01*
X17362500Y-13492286D01*
X17333928Y-13506571D01*
X17319643Y-13520857D01*
X17305357Y-13549429D01*
X17305357Y-13606571D01*
X17319643Y-13635143D01*
X17333928Y-13649429D01*
X17362500Y-13663714D01*
X17419643Y-13663714D01*
X17448214Y-13649429D01*
X17462500Y-13635143D01*
X17476786Y-13606571D01*
X17476786Y-13549429D01*
X17462500Y-13520857D01*
X17448214Y-13506571D01*
X17419643Y-13492286D01*
X17833928Y-13663714D02*
X17833928Y-13363714D01*
X17962500Y-13663714D02*
X17962500Y-13506571D01*
X17948214Y-13478000D01*
X17919643Y-13463714D01*
X17876786Y-13463714D01*
X17848214Y-13478000D01*
X17833928Y-13492286D01*
X18148214Y-13663714D02*
X18119643Y-13649429D01*
X18105357Y-13635143D01*
X18091071Y-13606571D01*
X18091071Y-13520857D01*
X18105357Y-13492286D01*
X18119643Y-13478000D01*
X18148214Y-13463714D01*
X18191071Y-13463714D01*
X18219643Y-13478000D01*
X18233928Y-13492286D01*
X18248214Y-13520857D01*
X18248214Y-13606571D01*
X18233928Y-13635143D01*
X18219643Y-13649429D01*
X18191071Y-13663714D01*
X18148214Y-13663714D01*
X18419643Y-13663714D02*
X18391071Y-13649429D01*
X18376786Y-13620857D01*
X18376786Y-13363714D01*
X18648214Y-13649429D02*
X18619643Y-13663714D01*
X18562500Y-13663714D01*
X18533928Y-13649429D01*
X18519643Y-13620857D01*
X18519643Y-13506571D01*
X18533928Y-13478000D01*
X18562500Y-13463714D01*
X18619643Y-13463714D01*
X18648214Y-13478000D01*
X18662500Y-13506571D01*
X18662500Y-13535143D01*
X18519643Y-13563714D01*
X18776786Y-13649429D02*
X18805357Y-13663714D01*
X18862500Y-13663714D01*
X18891071Y-13649429D01*
X18905357Y-13620857D01*
X18905357Y-13606571D01*
X18891071Y-13578000D01*
X18862500Y-13563714D01*
X18819643Y-13563714D01*
X18791071Y-13549429D01*
X18776786Y-13520857D01*
X18776786Y-13506571D01*
X18791071Y-13478000D01*
X18819643Y-13463714D01*
X18862500Y-13463714D01*
X18891071Y-13478000D01*
X19005357Y-13778000D02*
X19019643Y-13763714D01*
X19048214Y-13720857D01*
X19062500Y-13692286D01*
X19076786Y-13649429D01*
X19091071Y-13578000D01*
X19091071Y-13520857D01*
X19076786Y-13449429D01*
X19062500Y-13406571D01*
X19048214Y-13378000D01*
X19019643Y-13335143D01*
X19005357Y-13320857D01*
X11912500Y-13959000D02*
X11947500Y-13924000D01*
X11912500Y-13889000D01*
X11877500Y-13924000D01*
X11912500Y-13959000D01*
X12291071Y-13759714D02*
X12319643Y-13759714D01*
X12348214Y-13774000D01*
X12362500Y-13788286D01*
X12376786Y-13816857D01*
X12391071Y-13874000D01*
X12391071Y-13945429D01*
X12376786Y-14002571D01*
X12362500Y-14031143D01*
X12348214Y-14045429D01*
X12319643Y-14059714D01*
X12291071Y-14059714D01*
X12262500Y-14045429D01*
X12248214Y-14031143D01*
X12233928Y-14002571D01*
X12219643Y-13945429D01*
X12219643Y-13874000D01*
X12233928Y-13816857D01*
X12248214Y-13788286D01*
X12262500Y-13774000D01*
X12291071Y-13759714D01*
X12519643Y-14031143D02*
X12533928Y-14045429D01*
X12519643Y-14059714D01*
X12505357Y-14045429D01*
X12519643Y-14031143D01*
X12519643Y-14059714D01*
X12633928Y-13759714D02*
X12833928Y-13759714D01*
X12705357Y-14059714D01*
X13005357Y-13759714D02*
X13033928Y-13759714D01*
X13062500Y-13774000D01*
X13076786Y-13788286D01*
X13091071Y-13816857D01*
X13105357Y-13874000D01*
X13105357Y-13945429D01*
X13091071Y-14002571D01*
X13076786Y-14031143D01*
X13062500Y-14045429D01*
X13033928Y-14059714D01*
X13005357Y-14059714D01*
X12976786Y-14045429D01*
X12962500Y-14031143D01*
X12948214Y-14002571D01*
X12933928Y-13945429D01*
X12933928Y-13874000D01*
X12948214Y-13816857D01*
X12962500Y-13788286D01*
X12976786Y-13774000D01*
X13005357Y-13759714D01*
X13291071Y-13759714D02*
X13319643Y-13759714D01*
X13348214Y-13774000D01*
X13362500Y-13788286D01*
X13376786Y-13816857D01*
X13391071Y-13874000D01*
X13391071Y-13945429D01*
X13376786Y-14002571D01*
X13362500Y-14031143D01*
X13348214Y-14045429D01*
X13319643Y-14059714D01*
X13291071Y-14059714D01*
X13262500Y-14045429D01*
X13248214Y-14031143D01*
X13233928Y-14002571D01*
X13219643Y-13945429D01*
X13219643Y-13874000D01*
X13233928Y-13816857D01*
X13248214Y-13788286D01*
X13262500Y-13774000D01*
X13291071Y-13759714D01*
X13519643Y-14059714D02*
X13519643Y-13859714D01*
X13519643Y-13888286D02*
X13533928Y-13874000D01*
X13562500Y-13859714D01*
X13605357Y-13859714D01*
X13633928Y-13874000D01*
X13648214Y-13902571D01*
X13648214Y-14059714D01*
X13648214Y-13902571D02*
X13662500Y-13874000D01*
X13691071Y-13859714D01*
X13733928Y-13859714D01*
X13762500Y-13874000D01*
X13776786Y-13902571D01*
X13776786Y-14059714D01*
X13919643Y-14059714D02*
X13919643Y-13859714D01*
X13919643Y-13888286D02*
X13933928Y-13874000D01*
X13962500Y-13859714D01*
X14005357Y-13859714D01*
X14033928Y-13874000D01*
X14048214Y-13902571D01*
X14048214Y-14059714D01*
X14048214Y-13902571D02*
X14062500Y-13874000D01*
X14091071Y-13859714D01*
X14133928Y-13859714D01*
X14162500Y-13874000D01*
X14176786Y-13902571D01*
X14176786Y-14059714D01*
X14762500Y-13745429D02*
X14505357Y-14131143D01*
X15148214Y-13759714D02*
X15176786Y-13759714D01*
X15205357Y-13774000D01*
X15219643Y-13788286D01*
X15233928Y-13816857D01*
X15248214Y-13874000D01*
X15248214Y-13945429D01*
X15233928Y-14002571D01*
X15219643Y-14031143D01*
X15205357Y-14045429D01*
X15176786Y-14059714D01*
X15148214Y-14059714D01*
X15119643Y-14045429D01*
X15105357Y-14031143D01*
X15091071Y-14002571D01*
X15076786Y-13945429D01*
X15076786Y-13874000D01*
X15091071Y-13816857D01*
X15105357Y-13788286D01*
X15119643Y-13774000D01*
X15148214Y-13759714D01*
X15376786Y-14031143D02*
X15391071Y-14045429D01*
X15376786Y-14059714D01*
X15362500Y-14045429D01*
X15376786Y-14031143D01*
X15376786Y-14059714D01*
X15576786Y-13759714D02*
X15605357Y-13759714D01*
X15633928Y-13774000D01*
X15648214Y-13788286D01*
X15662500Y-13816857D01*
X15676786Y-13874000D01*
X15676786Y-13945429D01*
X15662500Y-14002571D01*
X15648214Y-14031143D01*
X15633928Y-14045429D01*
X15605357Y-14059714D01*
X15576786Y-14059714D01*
X15548214Y-14045429D01*
X15533928Y-14031143D01*
X15519643Y-14002571D01*
X15505357Y-13945429D01*
X15505357Y-13874000D01*
X15519643Y-13816857D01*
X15533928Y-13788286D01*
X15548214Y-13774000D01*
X15576786Y-13759714D01*
X15791071Y-13788286D02*
X15805357Y-13774000D01*
X15833928Y-13759714D01*
X15905357Y-13759714D01*
X15933928Y-13774000D01*
X15948214Y-13788286D01*
X15962500Y-13816857D01*
X15962500Y-13845429D01*
X15948214Y-13888286D01*
X15776786Y-14059714D01*
X15962500Y-14059714D01*
X16062500Y-13759714D02*
X16262500Y-13759714D01*
X16133928Y-14059714D01*
X16505357Y-13759714D02*
X16448214Y-13759714D01*
X16419643Y-13774000D01*
X16405357Y-13788286D01*
X16376786Y-13831143D01*
X16362500Y-13888286D01*
X16362500Y-14002571D01*
X16376786Y-14031143D01*
X16391071Y-14045429D01*
X16419643Y-14059714D01*
X16476786Y-14059714D01*
X16505357Y-14045429D01*
X16519643Y-14031143D01*
X16533928Y-14002571D01*
X16533928Y-13931143D01*
X16519643Y-13902571D01*
X16505357Y-13888286D01*
X16476786Y-13874000D01*
X16419643Y-13874000D01*
X16391071Y-13888286D01*
X16376786Y-13902571D01*
X16362500Y-13931143D01*
X16648214Y-13759714D02*
X16648214Y-13816857D01*
X16762500Y-13759714D02*
X16762500Y-13816857D01*
X17205357Y-14174000D02*
X17191071Y-14159714D01*
X17162500Y-14116857D01*
X17148214Y-14088286D01*
X17133928Y-14045429D01*
X17119643Y-13974000D01*
X17119643Y-13916857D01*
X17133928Y-13845429D01*
X17148214Y-13802571D01*
X17162500Y-13774000D01*
X17191071Y-13731143D01*
X17205357Y-13716857D01*
X17362500Y-13888286D02*
X17333928Y-13874000D01*
X17319643Y-13859714D01*
X17305357Y-13831143D01*
X17305357Y-13816857D01*
X17319643Y-13788286D01*
X17333928Y-13774000D01*
X17362500Y-13759714D01*
X17419643Y-13759714D01*
X17448214Y-13774000D01*
X17462500Y-13788286D01*
X17476786Y-13816857D01*
X17476786Y-13831143D01*
X17462500Y-13859714D01*
X17448214Y-13874000D01*
X17419643Y-13888286D01*
X17362500Y-13888286D01*
X17333928Y-13902571D01*
X17319643Y-13916857D01*
X17305357Y-13945429D01*
X17305357Y-14002571D01*
X17319643Y-14031143D01*
X17333928Y-14045429D01*
X17362500Y-14059714D01*
X17419643Y-14059714D01*
X17448214Y-14045429D01*
X17462500Y-14031143D01*
X17476786Y-14002571D01*
X17476786Y-13945429D01*
X17462500Y-13916857D01*
X17448214Y-13902571D01*
X17419643Y-13888286D01*
X17833928Y-14059714D02*
X17833928Y-13759714D01*
X17962500Y-14059714D02*
X17962500Y-13902571D01*
X17948214Y-13874000D01*
X17919643Y-13859714D01*
X17876786Y-13859714D01*
X17848214Y-13874000D01*
X17833928Y-13888286D01*
X18148214Y-14059714D02*
X18119643Y-14045429D01*
X18105357Y-14031143D01*
X18091071Y-14002571D01*
X18091071Y-13916857D01*
X18105357Y-13888286D01*
X18119643Y-13874000D01*
X18148214Y-13859714D01*
X18191071Y-13859714D01*
X18219643Y-13874000D01*
X18233928Y-13888286D01*
X18248214Y-13916857D01*
X18248214Y-14002571D01*
X18233928Y-14031143D01*
X18219643Y-14045429D01*
X18191071Y-14059714D01*
X18148214Y-14059714D01*
X18419643Y-14059714D02*
X18391071Y-14045429D01*
X18376786Y-14016857D01*
X18376786Y-13759714D01*
X18648214Y-14045429D02*
X18619643Y-14059714D01*
X18562500Y-14059714D01*
X18533928Y-14045429D01*
X18519643Y-14016857D01*
X18519643Y-13902571D01*
X18533928Y-13874000D01*
X18562500Y-13859714D01*
X18619643Y-13859714D01*
X18648214Y-13874000D01*
X18662500Y-13902571D01*
X18662500Y-13931143D01*
X18519643Y-13959714D01*
X18776786Y-14045429D02*
X18805357Y-14059714D01*
X18862500Y-14059714D01*
X18891071Y-14045429D01*
X18905357Y-14016857D01*
X18905357Y-14002571D01*
X18891071Y-13974000D01*
X18862500Y-13959714D01*
X18819643Y-13959714D01*
X18791071Y-13945429D01*
X18776786Y-13916857D01*
X18776786Y-13902571D01*
X18791071Y-13874000D01*
X18819643Y-13859714D01*
X18862500Y-13859714D01*
X18891071Y-13874000D01*
X19262500Y-13945429D02*
X19491071Y-13945429D01*
X19376786Y-14059714D02*
X19376786Y-13831143D01*
X19848214Y-13788286D02*
X19862500Y-13774000D01*
X19891071Y-13759714D01*
X19962500Y-13759714D01*
X19991071Y-13774000D01*
X20005357Y-13788286D01*
X20019643Y-13816857D01*
X20019643Y-13845429D01*
X20005357Y-13888286D01*
X19833928Y-14059714D01*
X20019643Y-14059714D01*
X20362500Y-14045429D02*
X20391071Y-14059714D01*
X20448214Y-14059714D01*
X20476786Y-14045429D01*
X20491071Y-14016857D01*
X20491071Y-14002571D01*
X20476786Y-13974000D01*
X20448214Y-13959714D01*
X20405357Y-13959714D01*
X20376786Y-13945429D01*
X20362500Y-13916857D01*
X20362500Y-13902571D01*
X20376786Y-13874000D01*
X20405357Y-13859714D01*
X20448214Y-13859714D01*
X20476786Y-13874000D01*
X20662500Y-14059714D02*
X20633928Y-14045429D01*
X20619643Y-14016857D01*
X20619643Y-13759714D01*
X20819643Y-14059714D02*
X20791071Y-14045429D01*
X20776786Y-14031143D01*
X20762500Y-14002571D01*
X20762500Y-13916857D01*
X20776786Y-13888286D01*
X20791071Y-13874000D01*
X20819643Y-13859714D01*
X20862500Y-13859714D01*
X20891071Y-13874000D01*
X20905357Y-13888286D01*
X20919643Y-13916857D01*
X20919643Y-14002571D01*
X20905357Y-14031143D01*
X20891071Y-14045429D01*
X20862500Y-14059714D01*
X20819643Y-14059714D01*
X21005357Y-13859714D02*
X21119643Y-13859714D01*
X21048214Y-13759714D02*
X21048214Y-14016857D01*
X21062500Y-14045429D01*
X21091071Y-14059714D01*
X21119643Y-14059714D01*
X21205357Y-14045429D02*
X21233928Y-14059714D01*
X21291071Y-14059714D01*
X21319643Y-14045429D01*
X21333928Y-14016857D01*
X21333928Y-14002571D01*
X21319643Y-13974000D01*
X21291071Y-13959714D01*
X21248214Y-13959714D01*
X21219643Y-13945429D01*
X21205357Y-13916857D01*
X21205357Y-13902571D01*
X21219643Y-13874000D01*
X21248214Y-13859714D01*
X21291071Y-13859714D01*
X21319643Y-13874000D01*
X21433928Y-14174000D02*
X21448214Y-14159714D01*
X21476786Y-14116857D01*
X21491071Y-14088286D01*
X21505357Y-14045429D01*
X21519643Y-13974000D01*
X21519643Y-13916857D01*
X21505357Y-13845429D01*
X21491071Y-13802571D01*
X21476786Y-13774000D01*
X21448214Y-13731143D01*
X21433928Y-13716857D01*
X11867500Y-14280000D02*
X11947500Y-14360000D01*
X11947500Y-14280000D02*
X11867500Y-14360000D01*
X11947500Y-14320000D02*
G75*
G03*
X11947500Y-14320000I-40000J0D01*
G01*
X12291071Y-14155714D02*
X12319643Y-14155714D01*
X12348214Y-14170000D01*
X12362500Y-14184286D01*
X12376786Y-14212857D01*
X12391071Y-14270000D01*
X12391071Y-14341429D01*
X12376786Y-14398571D01*
X12362500Y-14427143D01*
X12348214Y-14441429D01*
X12319643Y-14455714D01*
X12291071Y-14455714D01*
X12262500Y-14441429D01*
X12248214Y-14427143D01*
X12233928Y-14398571D01*
X12219643Y-14341429D01*
X12219643Y-14270000D01*
X12233928Y-14212857D01*
X12248214Y-14184286D01*
X12262500Y-14170000D01*
X12291071Y-14155714D01*
X12519643Y-14427143D02*
X12533928Y-14441429D01*
X12519643Y-14455714D01*
X12505357Y-14441429D01*
X12519643Y-14427143D01*
X12519643Y-14455714D01*
X12705357Y-14284286D02*
X12676786Y-14270000D01*
X12662500Y-14255714D01*
X12648214Y-14227143D01*
X12648214Y-14212857D01*
X12662500Y-14184286D01*
X12676786Y-14170000D01*
X12705357Y-14155714D01*
X12762500Y-14155714D01*
X12791071Y-14170000D01*
X12805357Y-14184286D01*
X12819643Y-14212857D01*
X12819643Y-14227143D01*
X12805357Y-14255714D01*
X12791071Y-14270000D01*
X12762500Y-14284286D01*
X12705357Y-14284286D01*
X12676786Y-14298571D01*
X12662500Y-14312857D01*
X12648214Y-14341429D01*
X12648214Y-14398571D01*
X12662500Y-14427143D01*
X12676786Y-14441429D01*
X12705357Y-14455714D01*
X12762500Y-14455714D01*
X12791071Y-14441429D01*
X12805357Y-14427143D01*
X12819643Y-14398571D01*
X12819643Y-14341429D01*
X12805357Y-14312857D01*
X12791071Y-14298571D01*
X12762500Y-14284286D01*
X13005357Y-14155714D02*
X13033928Y-14155714D01*
X13062500Y-14170000D01*
X13076786Y-14184286D01*
X13091071Y-14212857D01*
X13105357Y-14270000D01*
X13105357Y-14341429D01*
X13091071Y-14398571D01*
X13076786Y-14427143D01*
X13062500Y-14441429D01*
X13033928Y-14455714D01*
X13005357Y-14455714D01*
X12976786Y-14441429D01*
X12962500Y-14427143D01*
X12948214Y-14398571D01*
X12933928Y-14341429D01*
X12933928Y-14270000D01*
X12948214Y-14212857D01*
X12962500Y-14184286D01*
X12976786Y-14170000D01*
X13005357Y-14155714D01*
X13291071Y-14155714D02*
X13319643Y-14155714D01*
X13348214Y-14170000D01*
X13362500Y-14184286D01*
X13376786Y-14212857D01*
X13391071Y-14270000D01*
X13391071Y-14341429D01*
X13376786Y-14398571D01*
X13362500Y-14427143D01*
X13348214Y-14441429D01*
X13319643Y-14455714D01*
X13291071Y-14455714D01*
X13262500Y-14441429D01*
X13248214Y-14427143D01*
X13233928Y-14398571D01*
X13219643Y-14341429D01*
X13219643Y-14270000D01*
X13233928Y-14212857D01*
X13248214Y-14184286D01*
X13262500Y-14170000D01*
X13291071Y-14155714D01*
X13519643Y-14455714D02*
X13519643Y-14255714D01*
X13519643Y-14284286D02*
X13533928Y-14270000D01*
X13562500Y-14255714D01*
X13605357Y-14255714D01*
X13633928Y-14270000D01*
X13648214Y-14298571D01*
X13648214Y-14455714D01*
X13648214Y-14298571D02*
X13662500Y-14270000D01*
X13691071Y-14255714D01*
X13733928Y-14255714D01*
X13762500Y-14270000D01*
X13776786Y-14298571D01*
X13776786Y-14455714D01*
X13919643Y-14455714D02*
X13919643Y-14255714D01*
X13919643Y-14284286D02*
X13933928Y-14270000D01*
X13962500Y-14255714D01*
X14005357Y-14255714D01*
X14033928Y-14270000D01*
X14048214Y-14298571D01*
X14048214Y-14455714D01*
X14048214Y-14298571D02*
X14062500Y-14270000D01*
X14091071Y-14255714D01*
X14133928Y-14255714D01*
X14162500Y-14270000D01*
X14176786Y-14298571D01*
X14176786Y-14455714D01*
X14762500Y-14141429D02*
X14505357Y-14527143D01*
X15148214Y-14155714D02*
X15176786Y-14155714D01*
X15205357Y-14170000D01*
X15219643Y-14184286D01*
X15233928Y-14212857D01*
X15248214Y-14270000D01*
X15248214Y-14341429D01*
X15233928Y-14398571D01*
X15219643Y-14427143D01*
X15205357Y-14441429D01*
X15176786Y-14455714D01*
X15148214Y-14455714D01*
X15119643Y-14441429D01*
X15105357Y-14427143D01*
X15091071Y-14398571D01*
X15076786Y-14341429D01*
X15076786Y-14270000D01*
X15091071Y-14212857D01*
X15105357Y-14184286D01*
X15119643Y-14170000D01*
X15148214Y-14155714D01*
X15376786Y-14427143D02*
X15391071Y-14441429D01*
X15376786Y-14455714D01*
X15362500Y-14441429D01*
X15376786Y-14427143D01*
X15376786Y-14455714D01*
X15576786Y-14155714D02*
X15605357Y-14155714D01*
X15633928Y-14170000D01*
X15648214Y-14184286D01*
X15662500Y-14212857D01*
X15676786Y-14270000D01*
X15676786Y-14341429D01*
X15662500Y-14398571D01*
X15648214Y-14427143D01*
X15633928Y-14441429D01*
X15605357Y-14455714D01*
X15576786Y-14455714D01*
X15548214Y-14441429D01*
X15533928Y-14427143D01*
X15519643Y-14398571D01*
X15505357Y-14341429D01*
X15505357Y-14270000D01*
X15519643Y-14212857D01*
X15533928Y-14184286D01*
X15548214Y-14170000D01*
X15576786Y-14155714D01*
X15776786Y-14155714D02*
X15962500Y-14155714D01*
X15862500Y-14270000D01*
X15905357Y-14270000D01*
X15933928Y-14284286D01*
X15948214Y-14298571D01*
X15962500Y-14327143D01*
X15962500Y-14398571D01*
X15948214Y-14427143D01*
X15933928Y-14441429D01*
X15905357Y-14455714D01*
X15819643Y-14455714D01*
X15791071Y-14441429D01*
X15776786Y-14427143D01*
X16248214Y-14455714D02*
X16076786Y-14455714D01*
X16162500Y-14455714D02*
X16162500Y-14155714D01*
X16133928Y-14198571D01*
X16105357Y-14227143D01*
X16076786Y-14241429D01*
X16519643Y-14155714D02*
X16376786Y-14155714D01*
X16362500Y-14298571D01*
X16376786Y-14284286D01*
X16405357Y-14270000D01*
X16476786Y-14270000D01*
X16505357Y-14284286D01*
X16519643Y-14298571D01*
X16533928Y-14327143D01*
X16533928Y-14398571D01*
X16519643Y-14427143D01*
X16505357Y-14441429D01*
X16476786Y-14455714D01*
X16405357Y-14455714D01*
X16376786Y-14441429D01*
X16362500Y-14427143D01*
X16648214Y-14155714D02*
X16648214Y-14212857D01*
X16762500Y-14155714D02*
X16762500Y-14212857D01*
X17205357Y-14570000D02*
X17191071Y-14555714D01*
X17162500Y-14512857D01*
X17148214Y-14484286D01*
X17133928Y-14441429D01*
X17119643Y-14370000D01*
X17119643Y-14312857D01*
X17133928Y-14241429D01*
X17148214Y-14198571D01*
X17162500Y-14170000D01*
X17191071Y-14127143D01*
X17205357Y-14112857D01*
X17291071Y-14155714D02*
X17476786Y-14155714D01*
X17376786Y-14270000D01*
X17419643Y-14270000D01*
X17448214Y-14284286D01*
X17462500Y-14298571D01*
X17476786Y-14327143D01*
X17476786Y-14398571D01*
X17462500Y-14427143D01*
X17448214Y-14441429D01*
X17419643Y-14455714D01*
X17333928Y-14455714D01*
X17305357Y-14441429D01*
X17291071Y-14427143D01*
X17833928Y-14455714D02*
X17833928Y-14155714D01*
X17962500Y-14455714D02*
X17962500Y-14298571D01*
X17948214Y-14270000D01*
X17919643Y-14255714D01*
X17876786Y-14255714D01*
X17848214Y-14270000D01*
X17833928Y-14284286D01*
X18148214Y-14455714D02*
X18119643Y-14441429D01*
X18105357Y-14427143D01*
X18091071Y-14398571D01*
X18091071Y-14312857D01*
X18105357Y-14284286D01*
X18119643Y-14270000D01*
X18148214Y-14255714D01*
X18191071Y-14255714D01*
X18219643Y-14270000D01*
X18233928Y-14284286D01*
X18248214Y-14312857D01*
X18248214Y-14398571D01*
X18233928Y-14427143D01*
X18219643Y-14441429D01*
X18191071Y-14455714D01*
X18148214Y-14455714D01*
X18419643Y-14455714D02*
X18391071Y-14441429D01*
X18376786Y-14412857D01*
X18376786Y-14155714D01*
X18648214Y-14441429D02*
X18619643Y-14455714D01*
X18562500Y-14455714D01*
X18533928Y-14441429D01*
X18519643Y-14412857D01*
X18519643Y-14298571D01*
X18533928Y-14270000D01*
X18562500Y-14255714D01*
X18619643Y-14255714D01*
X18648214Y-14270000D01*
X18662500Y-14298571D01*
X18662500Y-14327143D01*
X18519643Y-14355714D01*
X18776786Y-14441429D02*
X18805357Y-14455714D01*
X18862500Y-14455714D01*
X18891071Y-14441429D01*
X18905357Y-14412857D01*
X18905357Y-14398571D01*
X18891071Y-14370000D01*
X18862500Y-14355714D01*
X18819643Y-14355714D01*
X18791071Y-14341429D01*
X18776786Y-14312857D01*
X18776786Y-14298571D01*
X18791071Y-14270000D01*
X18819643Y-14255714D01*
X18862500Y-14255714D01*
X18891071Y-14270000D01*
X19005357Y-14570000D02*
X19019643Y-14555714D01*
X19048214Y-14512857D01*
X19062500Y-14484286D01*
X19076786Y-14441429D01*
X19091071Y-14370000D01*
X19091071Y-14312857D01*
X19076786Y-14241429D01*
X19062500Y-14198571D01*
X19048214Y-14170000D01*
X19019643Y-14127143D01*
X19005357Y-14112857D01*
X11858500Y-14671500D02*
X11947500Y-14760500D01*
X11947500Y-14671500D02*
X11858500Y-14760500D01*
X11903000Y-14671500D02*
X11903000Y-14760500D01*
X11858500Y-14716000D02*
X11947500Y-14716000D01*
X12291071Y-14551714D02*
X12319643Y-14551714D01*
X12348214Y-14566000D01*
X12362500Y-14580286D01*
X12376786Y-14608857D01*
X12391071Y-14666000D01*
X12391071Y-14737429D01*
X12376786Y-14794571D01*
X12362500Y-14823143D01*
X12348214Y-14837429D01*
X12319643Y-14851714D01*
X12291071Y-14851714D01*
X12262500Y-14837429D01*
X12248214Y-14823143D01*
X12233928Y-14794571D01*
X12219643Y-14737429D01*
X12219643Y-14666000D01*
X12233928Y-14608857D01*
X12248214Y-14580286D01*
X12262500Y-14566000D01*
X12291071Y-14551714D01*
X12519643Y-14823143D02*
X12533928Y-14837429D01*
X12519643Y-14851714D01*
X12505357Y-14837429D01*
X12519643Y-14823143D01*
X12519643Y-14851714D01*
X12705357Y-14680286D02*
X12676786Y-14666000D01*
X12662500Y-14651714D01*
X12648214Y-14623143D01*
X12648214Y-14608857D01*
X12662500Y-14580286D01*
X12676786Y-14566000D01*
X12705357Y-14551714D01*
X12762500Y-14551714D01*
X12791071Y-14566000D01*
X12805357Y-14580286D01*
X12819643Y-14608857D01*
X12819643Y-14623143D01*
X12805357Y-14651714D01*
X12791071Y-14666000D01*
X12762500Y-14680286D01*
X12705357Y-14680286D01*
X12676786Y-14694571D01*
X12662500Y-14708857D01*
X12648214Y-14737429D01*
X12648214Y-14794571D01*
X12662500Y-14823143D01*
X12676786Y-14837429D01*
X12705357Y-14851714D01*
X12762500Y-14851714D01*
X12791071Y-14837429D01*
X12805357Y-14823143D01*
X12819643Y-14794571D01*
X12819643Y-14737429D01*
X12805357Y-14708857D01*
X12791071Y-14694571D01*
X12762500Y-14680286D01*
X12962500Y-14851714D02*
X13019643Y-14851714D01*
X13048214Y-14837429D01*
X13062500Y-14823143D01*
X13091071Y-14780286D01*
X13105357Y-14723143D01*
X13105357Y-14608857D01*
X13091071Y-14580286D01*
X13076786Y-14566000D01*
X13048214Y-14551714D01*
X12991071Y-14551714D01*
X12962500Y-14566000D01*
X12948214Y-14580286D01*
X12933928Y-14608857D01*
X12933928Y-14680286D01*
X12948214Y-14708857D01*
X12962500Y-14723143D01*
X12991071Y-14737429D01*
X13048214Y-14737429D01*
X13076786Y-14723143D01*
X13091071Y-14708857D01*
X13105357Y-14680286D01*
X13291071Y-14551714D02*
X13319643Y-14551714D01*
X13348214Y-14566000D01*
X13362500Y-14580286D01*
X13376786Y-14608857D01*
X13391071Y-14666000D01*
X13391071Y-14737429D01*
X13376786Y-14794571D01*
X13362500Y-14823143D01*
X13348214Y-14837429D01*
X13319643Y-14851714D01*
X13291071Y-14851714D01*
X13262500Y-14837429D01*
X13248214Y-14823143D01*
X13233928Y-14794571D01*
X13219643Y-14737429D01*
X13219643Y-14666000D01*
X13233928Y-14608857D01*
X13248214Y-14580286D01*
X13262500Y-14566000D01*
X13291071Y-14551714D01*
X13519643Y-14851714D02*
X13519643Y-14651714D01*
X13519643Y-14680286D02*
X13533928Y-14666000D01*
X13562500Y-14651714D01*
X13605357Y-14651714D01*
X13633928Y-14666000D01*
X13648214Y-14694571D01*
X13648214Y-14851714D01*
X13648214Y-14694571D02*
X13662500Y-14666000D01*
X13691071Y-14651714D01*
X13733928Y-14651714D01*
X13762500Y-14666000D01*
X13776786Y-14694571D01*
X13776786Y-14851714D01*
X13919643Y-14851714D02*
X13919643Y-14651714D01*
X13919643Y-14680286D02*
X13933928Y-14666000D01*
X13962500Y-14651714D01*
X14005357Y-14651714D01*
X14033928Y-14666000D01*
X14048214Y-14694571D01*
X14048214Y-14851714D01*
X14048214Y-14694571D02*
X14062500Y-14666000D01*
X14091071Y-14651714D01*
X14133928Y-14651714D01*
X14162500Y-14666000D01*
X14176786Y-14694571D01*
X14176786Y-14851714D01*
X14762500Y-14537429D02*
X14505357Y-14923143D01*
X15148214Y-14551714D02*
X15176786Y-14551714D01*
X15205357Y-14566000D01*
X15219643Y-14580286D01*
X15233928Y-14608857D01*
X15248214Y-14666000D01*
X15248214Y-14737429D01*
X15233928Y-14794571D01*
X15219643Y-14823143D01*
X15205357Y-14837429D01*
X15176786Y-14851714D01*
X15148214Y-14851714D01*
X15119643Y-14837429D01*
X15105357Y-14823143D01*
X15091071Y-14794571D01*
X15076786Y-14737429D01*
X15076786Y-14666000D01*
X15091071Y-14608857D01*
X15105357Y-14580286D01*
X15119643Y-14566000D01*
X15148214Y-14551714D01*
X15376786Y-14823143D02*
X15391071Y-14837429D01*
X15376786Y-14851714D01*
X15362500Y-14837429D01*
X15376786Y-14823143D01*
X15376786Y-14851714D01*
X15576786Y-14551714D02*
X15605357Y-14551714D01*
X15633928Y-14566000D01*
X15648214Y-14580286D01*
X15662500Y-14608857D01*
X15676786Y-14666000D01*
X15676786Y-14737429D01*
X15662500Y-14794571D01*
X15648214Y-14823143D01*
X15633928Y-14837429D01*
X15605357Y-14851714D01*
X15576786Y-14851714D01*
X15548214Y-14837429D01*
X15533928Y-14823143D01*
X15519643Y-14794571D01*
X15505357Y-14737429D01*
X15505357Y-14666000D01*
X15519643Y-14608857D01*
X15533928Y-14580286D01*
X15548214Y-14566000D01*
X15576786Y-14551714D01*
X15776786Y-14551714D02*
X15962500Y-14551714D01*
X15862500Y-14666000D01*
X15905357Y-14666000D01*
X15933928Y-14680286D01*
X15948214Y-14694571D01*
X15962500Y-14723143D01*
X15962500Y-14794571D01*
X15948214Y-14823143D01*
X15933928Y-14837429D01*
X15905357Y-14851714D01*
X15819643Y-14851714D01*
X15791071Y-14837429D01*
X15776786Y-14823143D01*
X16233928Y-14551714D02*
X16091071Y-14551714D01*
X16076786Y-14694571D01*
X16091071Y-14680286D01*
X16119643Y-14666000D01*
X16191071Y-14666000D01*
X16219643Y-14680286D01*
X16233928Y-14694571D01*
X16248214Y-14723143D01*
X16248214Y-14794571D01*
X16233928Y-14823143D01*
X16219643Y-14837429D01*
X16191071Y-14851714D01*
X16119643Y-14851714D01*
X16091071Y-14837429D01*
X16076786Y-14823143D01*
X16433928Y-14551714D02*
X16462500Y-14551714D01*
X16491071Y-14566000D01*
X16505357Y-14580286D01*
X16519643Y-14608857D01*
X16533928Y-14666000D01*
X16533928Y-14737429D01*
X16519643Y-14794571D01*
X16505357Y-14823143D01*
X16491071Y-14837429D01*
X16462500Y-14851714D01*
X16433928Y-14851714D01*
X16405357Y-14837429D01*
X16391071Y-14823143D01*
X16376786Y-14794571D01*
X16362500Y-14737429D01*
X16362500Y-14666000D01*
X16376786Y-14608857D01*
X16391071Y-14580286D01*
X16405357Y-14566000D01*
X16433928Y-14551714D01*
X16648214Y-14551714D02*
X16648214Y-14608857D01*
X16762500Y-14551714D02*
X16762500Y-14608857D01*
X17205357Y-14966000D02*
X17191071Y-14951714D01*
X17162500Y-14908857D01*
X17148214Y-14880286D01*
X17133928Y-14837429D01*
X17119643Y-14766000D01*
X17119643Y-14708857D01*
X17133928Y-14637429D01*
X17148214Y-14594571D01*
X17162500Y-14566000D01*
X17191071Y-14523143D01*
X17205357Y-14508857D01*
X17448214Y-14651714D02*
X17448214Y-14851714D01*
X17376786Y-14537429D02*
X17305357Y-14751714D01*
X17491071Y-14751714D01*
X17833928Y-14851714D02*
X17833928Y-14551714D01*
X17962500Y-14851714D02*
X17962500Y-14694571D01*
X17948214Y-14666000D01*
X17919643Y-14651714D01*
X17876786Y-14651714D01*
X17848214Y-14666000D01*
X17833928Y-14680286D01*
X18148214Y-14851714D02*
X18119643Y-14837429D01*
X18105357Y-14823143D01*
X18091071Y-14794571D01*
X18091071Y-14708857D01*
X18105357Y-14680286D01*
X18119643Y-14666000D01*
X18148214Y-14651714D01*
X18191071Y-14651714D01*
X18219643Y-14666000D01*
X18233928Y-14680286D01*
X18248214Y-14708857D01*
X18248214Y-14794571D01*
X18233928Y-14823143D01*
X18219643Y-14837429D01*
X18191071Y-14851714D01*
X18148214Y-14851714D01*
X18419643Y-14851714D02*
X18391071Y-14837429D01*
X18376786Y-14808857D01*
X18376786Y-14551714D01*
X18648214Y-14837429D02*
X18619643Y-14851714D01*
X18562500Y-14851714D01*
X18533928Y-14837429D01*
X18519643Y-14808857D01*
X18519643Y-14694571D01*
X18533928Y-14666000D01*
X18562500Y-14651714D01*
X18619643Y-14651714D01*
X18648214Y-14666000D01*
X18662500Y-14694571D01*
X18662500Y-14723143D01*
X18519643Y-14751714D01*
X18776786Y-14837429D02*
X18805357Y-14851714D01*
X18862500Y-14851714D01*
X18891071Y-14837429D01*
X18905357Y-14808857D01*
X18905357Y-14794571D01*
X18891071Y-14766000D01*
X18862500Y-14751714D01*
X18819643Y-14751714D01*
X18791071Y-14737429D01*
X18776786Y-14708857D01*
X18776786Y-14694571D01*
X18791071Y-14666000D01*
X18819643Y-14651714D01*
X18862500Y-14651714D01*
X18891071Y-14666000D01*
X19005357Y-14966000D02*
X19019643Y-14951714D01*
X19048214Y-14908857D01*
X19062500Y-14880286D01*
X19076786Y-14837429D01*
X19091071Y-14766000D01*
X19091071Y-14708857D01*
X19076786Y-14637429D01*
X19062500Y-14594571D01*
X19048214Y-14566000D01*
X19019643Y-14523143D01*
X19005357Y-14508857D01*
X11847500Y-15062000D02*
X11947500Y-15162000D01*
X11947500Y-15062000D02*
X11847500Y-15162000D01*
X11932856Y-15147356D02*
X11932856Y-15076644D01*
X11862144Y-15076644D01*
X11862144Y-15147356D01*
X11932856Y-15147356D01*
X12391071Y-15247714D02*
X12219643Y-15247714D01*
X12305357Y-15247714D02*
X12305357Y-14947714D01*
X12276786Y-14990571D01*
X12248214Y-15019143D01*
X12219643Y-15033429D01*
X12519643Y-15219143D02*
X12533928Y-15233429D01*
X12519643Y-15247714D01*
X12505357Y-15233429D01*
X12519643Y-15219143D01*
X12519643Y-15247714D01*
X12719643Y-14947714D02*
X12748214Y-14947714D01*
X12776786Y-14962000D01*
X12791071Y-14976286D01*
X12805357Y-15004857D01*
X12819643Y-15062000D01*
X12819643Y-15133429D01*
X12805357Y-15190571D01*
X12791071Y-15219143D01*
X12776786Y-15233429D01*
X12748214Y-15247714D01*
X12719643Y-15247714D01*
X12691071Y-15233429D01*
X12676786Y-15219143D01*
X12662500Y-15190571D01*
X12648214Y-15133429D01*
X12648214Y-15062000D01*
X12662500Y-15004857D01*
X12676786Y-14976286D01*
X12691071Y-14962000D01*
X12719643Y-14947714D01*
X13005357Y-14947714D02*
X13033928Y-14947714D01*
X13062500Y-14962000D01*
X13076786Y-14976286D01*
X13091071Y-15004857D01*
X13105357Y-15062000D01*
X13105357Y-15133429D01*
X13091071Y-15190571D01*
X13076786Y-15219143D01*
X13062500Y-15233429D01*
X13033928Y-15247714D01*
X13005357Y-15247714D01*
X12976786Y-15233429D01*
X12962500Y-15219143D01*
X12948214Y-15190571D01*
X12933928Y-15133429D01*
X12933928Y-15062000D01*
X12948214Y-15004857D01*
X12962500Y-14976286D01*
X12976786Y-14962000D01*
X13005357Y-14947714D01*
X13291071Y-14947714D02*
X13319643Y-14947714D01*
X13348214Y-14962000D01*
X13362500Y-14976286D01*
X13376786Y-15004857D01*
X13391071Y-15062000D01*
X13391071Y-15133429D01*
X13376786Y-15190571D01*
X13362500Y-15219143D01*
X13348214Y-15233429D01*
X13319643Y-15247714D01*
X13291071Y-15247714D01*
X13262500Y-15233429D01*
X13248214Y-15219143D01*
X13233928Y-15190571D01*
X13219643Y-15133429D01*
X13219643Y-15062000D01*
X13233928Y-15004857D01*
X13248214Y-14976286D01*
X13262500Y-14962000D01*
X13291071Y-14947714D01*
X13519643Y-15247714D02*
X13519643Y-15047714D01*
X13519643Y-15076286D02*
X13533928Y-15062000D01*
X13562500Y-15047714D01*
X13605357Y-15047714D01*
X13633928Y-15062000D01*
X13648214Y-15090571D01*
X13648214Y-15247714D01*
X13648214Y-15090571D02*
X13662500Y-15062000D01*
X13691071Y-15047714D01*
X13733928Y-15047714D01*
X13762500Y-15062000D01*
X13776786Y-15090571D01*
X13776786Y-15247714D01*
X13919643Y-15247714D02*
X13919643Y-15047714D01*
X13919643Y-15076286D02*
X13933928Y-15062000D01*
X13962500Y-15047714D01*
X14005357Y-15047714D01*
X14033928Y-15062000D01*
X14048214Y-15090571D01*
X14048214Y-15247714D01*
X14048214Y-15090571D02*
X14062500Y-15062000D01*
X14091071Y-15047714D01*
X14133928Y-15047714D01*
X14162500Y-15062000D01*
X14176786Y-15090571D01*
X14176786Y-15247714D01*
X14762500Y-14933429D02*
X14505357Y-15319143D01*
X15148214Y-14947714D02*
X15176786Y-14947714D01*
X15205357Y-14962000D01*
X15219643Y-14976286D01*
X15233928Y-15004857D01*
X15248214Y-15062000D01*
X15248214Y-15133429D01*
X15233928Y-15190571D01*
X15219643Y-15219143D01*
X15205357Y-15233429D01*
X15176786Y-15247714D01*
X15148214Y-15247714D01*
X15119643Y-15233429D01*
X15105357Y-15219143D01*
X15091071Y-15190571D01*
X15076786Y-15133429D01*
X15076786Y-15062000D01*
X15091071Y-15004857D01*
X15105357Y-14976286D01*
X15119643Y-14962000D01*
X15148214Y-14947714D01*
X15376786Y-15219143D02*
X15391071Y-15233429D01*
X15376786Y-15247714D01*
X15362500Y-15233429D01*
X15376786Y-15219143D01*
X15376786Y-15247714D01*
X15576786Y-14947714D02*
X15605357Y-14947714D01*
X15633928Y-14962000D01*
X15648214Y-14976286D01*
X15662500Y-15004857D01*
X15676786Y-15062000D01*
X15676786Y-15133429D01*
X15662500Y-15190571D01*
X15648214Y-15219143D01*
X15633928Y-15233429D01*
X15605357Y-15247714D01*
X15576786Y-15247714D01*
X15548214Y-15233429D01*
X15533928Y-15219143D01*
X15519643Y-15190571D01*
X15505357Y-15133429D01*
X15505357Y-15062000D01*
X15519643Y-15004857D01*
X15533928Y-14976286D01*
X15548214Y-14962000D01*
X15576786Y-14947714D01*
X15776786Y-14947714D02*
X15962500Y-14947714D01*
X15862500Y-15062000D01*
X15905357Y-15062000D01*
X15933928Y-15076286D01*
X15948214Y-15090571D01*
X15962500Y-15119143D01*
X15962500Y-15190571D01*
X15948214Y-15219143D01*
X15933928Y-15233429D01*
X15905357Y-15247714D01*
X15819643Y-15247714D01*
X15791071Y-15233429D01*
X15776786Y-15219143D01*
X16105357Y-15247714D02*
X16162500Y-15247714D01*
X16191071Y-15233429D01*
X16205357Y-15219143D01*
X16233928Y-15176286D01*
X16248214Y-15119143D01*
X16248214Y-15004857D01*
X16233928Y-14976286D01*
X16219643Y-14962000D01*
X16191071Y-14947714D01*
X16133928Y-14947714D01*
X16105357Y-14962000D01*
X16091071Y-14976286D01*
X16076786Y-15004857D01*
X16076786Y-15076286D01*
X16091071Y-15104857D01*
X16105357Y-15119143D01*
X16133928Y-15133429D01*
X16191071Y-15133429D01*
X16219643Y-15119143D01*
X16233928Y-15104857D01*
X16248214Y-15076286D01*
X16505357Y-15047714D02*
X16505357Y-15247714D01*
X16433928Y-14933429D02*
X16362500Y-15147714D01*
X16548214Y-15147714D01*
X16648214Y-14947714D02*
X16648214Y-15004857D01*
X16762500Y-14947714D02*
X16762500Y-15004857D01*
X17205357Y-15362000D02*
X17191071Y-15347714D01*
X17162500Y-15304857D01*
X17148214Y-15276286D01*
X17133928Y-15233429D01*
X17119643Y-15162000D01*
X17119643Y-15104857D01*
X17133928Y-15033429D01*
X17148214Y-14990571D01*
X17162500Y-14962000D01*
X17191071Y-14919143D01*
X17205357Y-14904857D01*
X17448214Y-15047714D02*
X17448214Y-15247714D01*
X17376786Y-14933429D02*
X17305357Y-15147714D01*
X17491071Y-15147714D01*
X17833928Y-15247714D02*
X17833928Y-14947714D01*
X17962500Y-15247714D02*
X17962500Y-15090571D01*
X17948214Y-15062000D01*
X17919643Y-15047714D01*
X17876786Y-15047714D01*
X17848214Y-15062000D01*
X17833928Y-15076286D01*
X18148214Y-15247714D02*
X18119643Y-15233429D01*
X18105357Y-15219143D01*
X18091071Y-15190571D01*
X18091071Y-15104857D01*
X18105357Y-15076286D01*
X18119643Y-15062000D01*
X18148214Y-15047714D01*
X18191071Y-15047714D01*
X18219643Y-15062000D01*
X18233928Y-15076286D01*
X18248214Y-15104857D01*
X18248214Y-15190571D01*
X18233928Y-15219143D01*
X18219643Y-15233429D01*
X18191071Y-15247714D01*
X18148214Y-15247714D01*
X18419643Y-15247714D02*
X18391071Y-15233429D01*
X18376786Y-15204857D01*
X18376786Y-14947714D01*
X18648214Y-15233429D02*
X18619643Y-15247714D01*
X18562500Y-15247714D01*
X18533928Y-15233429D01*
X18519643Y-15204857D01*
X18519643Y-15090571D01*
X18533928Y-15062000D01*
X18562500Y-15047714D01*
X18619643Y-15047714D01*
X18648214Y-15062000D01*
X18662500Y-15090571D01*
X18662500Y-15119143D01*
X18519643Y-15147714D01*
X18776786Y-15233429D02*
X18805357Y-15247714D01*
X18862500Y-15247714D01*
X18891071Y-15233429D01*
X18905357Y-15204857D01*
X18905357Y-15190571D01*
X18891071Y-15162000D01*
X18862500Y-15147714D01*
X18819643Y-15147714D01*
X18791071Y-15133429D01*
X18776786Y-15104857D01*
X18776786Y-15090571D01*
X18791071Y-15062000D01*
X18819643Y-15047714D01*
X18862500Y-15047714D01*
X18891071Y-15062000D01*
X19005357Y-15362000D02*
X19019643Y-15347714D01*
X19048214Y-15304857D01*
X19062500Y-15276286D01*
X19076786Y-15233429D01*
X19091071Y-15162000D01*
X19091071Y-15104857D01*
X19076786Y-15033429D01*
X19062500Y-14990571D01*
X19048214Y-14962000D01*
X19019643Y-14919143D01*
X19005357Y-14904857D01*
X11746500Y-15407500D02*
X11947500Y-15608500D01*
X11947500Y-15407500D02*
X11746500Y-15608500D01*
X11847000Y-15608500D02*
X11947500Y-15508000D01*
X11847000Y-15407500D01*
X11746500Y-15508000D01*
X11847000Y-15608500D01*
X12219643Y-15372286D02*
X12233928Y-15358000D01*
X12262500Y-15343714D01*
X12333928Y-15343714D01*
X12362500Y-15358000D01*
X12376786Y-15372286D01*
X12391071Y-15400857D01*
X12391071Y-15429429D01*
X12376786Y-15472286D01*
X12205357Y-15643714D01*
X12391071Y-15643714D01*
X12519643Y-15615143D02*
X12533928Y-15629429D01*
X12519643Y-15643714D01*
X12505357Y-15629429D01*
X12519643Y-15615143D01*
X12519643Y-15643714D01*
X12719643Y-15343714D02*
X12748214Y-15343714D01*
X12776786Y-15358000D01*
X12791071Y-15372286D01*
X12805357Y-15400857D01*
X12819643Y-15458000D01*
X12819643Y-15529429D01*
X12805357Y-15586571D01*
X12791071Y-15615143D01*
X12776786Y-15629429D01*
X12748214Y-15643714D01*
X12719643Y-15643714D01*
X12691071Y-15629429D01*
X12676786Y-15615143D01*
X12662500Y-15586571D01*
X12648214Y-15529429D01*
X12648214Y-15458000D01*
X12662500Y-15400857D01*
X12676786Y-15372286D01*
X12691071Y-15358000D01*
X12719643Y-15343714D01*
X13105357Y-15643714D02*
X12933928Y-15643714D01*
X13019643Y-15643714D02*
X13019643Y-15343714D01*
X12991071Y-15386571D01*
X12962500Y-15415143D01*
X12933928Y-15429429D01*
X13291071Y-15343714D02*
X13319643Y-15343714D01*
X13348214Y-15358000D01*
X13362500Y-15372286D01*
X13376786Y-15400857D01*
X13391071Y-15458000D01*
X13391071Y-15529429D01*
X13376786Y-15586571D01*
X13362500Y-15615143D01*
X13348214Y-15629429D01*
X13319643Y-15643714D01*
X13291071Y-15643714D01*
X13262500Y-15629429D01*
X13248214Y-15615143D01*
X13233928Y-15586571D01*
X13219643Y-15529429D01*
X13219643Y-15458000D01*
X13233928Y-15400857D01*
X13248214Y-15372286D01*
X13262500Y-15358000D01*
X13291071Y-15343714D01*
X13519643Y-15643714D02*
X13519643Y-15443714D01*
X13519643Y-15472286D02*
X13533928Y-15458000D01*
X13562500Y-15443714D01*
X13605357Y-15443714D01*
X13633928Y-15458000D01*
X13648214Y-15486571D01*
X13648214Y-15643714D01*
X13648214Y-15486571D02*
X13662500Y-15458000D01*
X13691071Y-15443714D01*
X13733928Y-15443714D01*
X13762500Y-15458000D01*
X13776786Y-15486571D01*
X13776786Y-15643714D01*
X13919643Y-15643714D02*
X13919643Y-15443714D01*
X13919643Y-15472286D02*
X13933928Y-15458000D01*
X13962500Y-15443714D01*
X14005357Y-15443714D01*
X14033928Y-15458000D01*
X14048214Y-15486571D01*
X14048214Y-15643714D01*
X14048214Y-15486571D02*
X14062500Y-15458000D01*
X14091071Y-15443714D01*
X14133928Y-15443714D01*
X14162500Y-15458000D01*
X14176786Y-15486571D01*
X14176786Y-15643714D01*
X14762500Y-15329429D02*
X14505357Y-15715143D01*
X15148214Y-15343714D02*
X15176786Y-15343714D01*
X15205357Y-15358000D01*
X15219643Y-15372286D01*
X15233928Y-15400857D01*
X15248214Y-15458000D01*
X15248214Y-15529429D01*
X15233928Y-15586571D01*
X15219643Y-15615143D01*
X15205357Y-15629429D01*
X15176786Y-15643714D01*
X15148214Y-15643714D01*
X15119643Y-15629429D01*
X15105357Y-15615143D01*
X15091071Y-15586571D01*
X15076786Y-15529429D01*
X15076786Y-15458000D01*
X15091071Y-15400857D01*
X15105357Y-15372286D01*
X15119643Y-15358000D01*
X15148214Y-15343714D01*
X15376786Y-15615143D02*
X15391071Y-15629429D01*
X15376786Y-15643714D01*
X15362500Y-15629429D01*
X15376786Y-15615143D01*
X15376786Y-15643714D01*
X15576786Y-15343714D02*
X15605357Y-15343714D01*
X15633928Y-15358000D01*
X15648214Y-15372286D01*
X15662500Y-15400857D01*
X15676786Y-15458000D01*
X15676786Y-15529429D01*
X15662500Y-15586571D01*
X15648214Y-15615143D01*
X15633928Y-15629429D01*
X15605357Y-15643714D01*
X15576786Y-15643714D01*
X15548214Y-15629429D01*
X15533928Y-15615143D01*
X15519643Y-15586571D01*
X15505357Y-15529429D01*
X15505357Y-15458000D01*
X15519643Y-15400857D01*
X15533928Y-15372286D01*
X15548214Y-15358000D01*
X15576786Y-15343714D01*
X15776786Y-15343714D02*
X15976786Y-15343714D01*
X15848214Y-15643714D01*
X16105357Y-15643714D02*
X16162500Y-15643714D01*
X16191071Y-15629429D01*
X16205357Y-15615143D01*
X16233928Y-15572286D01*
X16248214Y-15515143D01*
X16248214Y-15400857D01*
X16233928Y-15372286D01*
X16219643Y-15358000D01*
X16191071Y-15343714D01*
X16133928Y-15343714D01*
X16105357Y-15358000D01*
X16091071Y-15372286D01*
X16076786Y-15400857D01*
X16076786Y-15472286D01*
X16091071Y-15500857D01*
X16105357Y-15515143D01*
X16133928Y-15529429D01*
X16191071Y-15529429D01*
X16219643Y-15515143D01*
X16233928Y-15500857D01*
X16248214Y-15472286D01*
X16533928Y-15643714D02*
X16362500Y-15643714D01*
X16448214Y-15643714D02*
X16448214Y-15343714D01*
X16419643Y-15386571D01*
X16391071Y-15415143D01*
X16362500Y-15429429D01*
X16648214Y-15343714D02*
X16648214Y-15400857D01*
X16762500Y-15343714D02*
X16762500Y-15400857D01*
X17205357Y-15758000D02*
X17191071Y-15743714D01*
X17162500Y-15700857D01*
X17148214Y-15672286D01*
X17133928Y-15629429D01*
X17119643Y-15558000D01*
X17119643Y-15500857D01*
X17133928Y-15429429D01*
X17148214Y-15386571D01*
X17162500Y-15358000D01*
X17191071Y-15315143D01*
X17205357Y-15300857D01*
X17448214Y-15443714D02*
X17448214Y-15643714D01*
X17376786Y-15329429D02*
X17305357Y-15543714D01*
X17491071Y-15543714D01*
X17833928Y-15643714D02*
X17833928Y-15343714D01*
X17962500Y-15643714D02*
X17962500Y-15486571D01*
X17948214Y-15458000D01*
X17919643Y-15443714D01*
X17876786Y-15443714D01*
X17848214Y-15458000D01*
X17833928Y-15472286D01*
X18148214Y-15643714D02*
X18119643Y-15629429D01*
X18105357Y-15615143D01*
X18091071Y-15586571D01*
X18091071Y-15500857D01*
X18105357Y-15472286D01*
X18119643Y-15458000D01*
X18148214Y-15443714D01*
X18191071Y-15443714D01*
X18219643Y-15458000D01*
X18233928Y-15472286D01*
X18248214Y-15500857D01*
X18248214Y-15586571D01*
X18233928Y-15615143D01*
X18219643Y-15629429D01*
X18191071Y-15643714D01*
X18148214Y-15643714D01*
X18419643Y-15643714D02*
X18391071Y-15629429D01*
X18376786Y-15600857D01*
X18376786Y-15343714D01*
X18648214Y-15629429D02*
X18619643Y-15643714D01*
X18562500Y-15643714D01*
X18533928Y-15629429D01*
X18519643Y-15600857D01*
X18519643Y-15486571D01*
X18533928Y-15458000D01*
X18562500Y-15443714D01*
X18619643Y-15443714D01*
X18648214Y-15458000D01*
X18662500Y-15486571D01*
X18662500Y-15515143D01*
X18519643Y-15543714D01*
X18776786Y-15629429D02*
X18805357Y-15643714D01*
X18862500Y-15643714D01*
X18891071Y-15629429D01*
X18905357Y-15600857D01*
X18905357Y-15586571D01*
X18891071Y-15558000D01*
X18862500Y-15543714D01*
X18819643Y-15543714D01*
X18791071Y-15529429D01*
X18776786Y-15500857D01*
X18776786Y-15486571D01*
X18791071Y-15458000D01*
X18819643Y-15443714D01*
X18862500Y-15443714D01*
X18891071Y-15458000D01*
X19005357Y-15758000D02*
X19019643Y-15743714D01*
X19048214Y-15700857D01*
X19062500Y-15672286D01*
X19076786Y-15629429D01*
X19091071Y-15558000D01*
X19091071Y-15500857D01*
X19076786Y-15429429D01*
X19062500Y-15386571D01*
X19048214Y-15358000D01*
X19019643Y-15315143D01*
X19005357Y-15300857D01*
M02*
